Facade-SemiBold.ufo
<glyph name="ampersand" format="2">
  <advance width="800.0"/>
  <unicode hex="0026"/>
  <outline>
    <contour>
      <point x="365.25" y="-16.5" type="curve" smooth="yes"/>
      <point x="446.75" y="-16.5"/>
      <point x="527.25" y="9.25"/>
      <point x="595.0" y="61.75" type="curve"/>
      <point x="534.5" y="80.5" type="line"/>
      <point x="595.0" y="0.0" type="line"/>
      <point x="781.5" y="0.0" type="line"/>
      <point x="686.0" y="130.25" type="line"/>
      <point x="722.5" y="167.5"/>
      <point x="750.25" y="210.75"/>
      <point x="770.75" y="259.0" type="curve"/>
      <point x="668.25" y="399.75" type="line"/>
      <point x="665.25" y="342.0"/>
      <point x="643.5" y="285.75"/>
      <point x="608.25" y="240.25" type="curve"/>
      <point x="426.25" y="491.5" type="line"/>
      <point x="448.0" y="502.5" type="line" smooth="yes"/>
      <point x="491.0" y="524.25"/>
      <point x="600.0" y="581.0"/>
      <point x="600.0" y="702.25" type="curve" smooth="yes"/>
      <point x="600.0" y="824.25"/>
      <point x="488.5" y="916.5"/>
      <point x="367.25" y="916.5" type="curve" smooth="yes"/>
      <point x="246.75" y="916.5"/>
      <point x="142.5" y="825.0"/>
      <point x="142.5" y="701.25" type="curve" smooth="yes"/>
      <point x="142.5" y="635.0"/>
      <point x="172.25" y="587.0"/>
      <point x="207.0" y="539.25" type="curve" smooth="yes"/>
      <point x="215.75" y="527.5" type="line"/>
      <point x="124.5" y="472.75"/>
      <point x="54.75" y="389.0"/>
      <point x="54.75" y="269.5" type="curve" smooth="yes"/>
      <point x="54.75" y="103.75"/>
      <point x="184.25" y="-16.5"/>
    </contour>
    <contour>
      <point x="381.75" y="121.0" type="curve" smooth="yes"/>
      <point x="270.25" y="121.0"/>
      <point x="208.75" y="194.75"/>
      <point x="208.75" y="281.75" type="curve" smooth="yes"/>
      <point x="208.75" y="356.0"/>
      <point x="254.5" y="398.5"/>
      <point x="291.25" y="421.75" type="curve"/>
      <point x="489.0" y="147.5" type="line"/>
      <point x="455.75" y="131.25"/>
      <point x="420.0" y="121.0"/>
    </contour>
    <contour>
      <point x="350.25" y="593.75" type="line"/>
      <point x="327.0" y="626.75" type="line" smooth="yes"/>
      <point x="305.5" y="657.25"/>
      <point x="288.75" y="682.25"/>
      <point x="288.75" y="712.5" type="curve" smooth="yes"/>
      <point x="288.75" y="755.75"/>
      <point x="322.5" y="793.5"/>
      <point x="371.75" y="793.5" type="curve" smooth="yes"/>
      <point x="418.75" y="793.5"/>
      <point x="453.75" y="755.75"/>
      <point x="453.75" y="708.75" type="curve" smooth="yes"/>
      <point x="453.75" y="650.75"/>
      <point x="403.75" y="623.25"/>
      <point x="383.0" y="611.75" type="curve" smooth="yes"/>
    </contour>
  </outline>
</glyph>
<glyph name="parenleft" format="2">
  <advance width="480.0"/>
  <unicode hex="0028"/>
  <outline>
    <contour>
      <point x="251.0" y="-180.0" type="curve"/>
      <point x="412.5" y="-180.0" type="line"/>
      <point x="301.5" y="-19.0"/>
      <point x="238.5" y="176.0"/>
      <point x="238.5" y="390.0" type="curve" smooth="yes"/>
      <point x="238.5" y="604.0"/>
      <point x="301.5" y="799.0"/>
      <point x="412.5" y="960.0" type="curve"/>
      <point x="251.0" y="960.0" type="line"/>
      <point x="149.0" y="793.0"/>
      <point x="90.0" y="598.0"/>
      <point x="90.0" y="390.0" type="curve" smooth="yes"/>
      <point x="90.0" y="182.0"/>
      <point x="149.0" y="-13.0"/>
    </contour>
  </outline>
</glyph>
<glyph name="asterisk" format="2">
  <advance width="600.0"/>
  <unicode hex="002A"/>
  <outline>
    <contour>
      <point x="203.25" y="396.5" type="line"/>
      <point x="300.0" y="559.5" type="line"/>
      <point x="396.75" y="396.5" type="line"/>
      <point x="502.25" y="474.5" type="line"/>
      <point x="377.0" y="617.25" type="line"/>
      <point x="564.0" y="658.75" type="line"/>
      <point x="522.75" y="784.25" type="line"/>
      <point x="348.5" y="709.0" type="line"/>
      <point x="366.0" y="900.0" type="line"/>
      <point x="234.0" y="900.0" type="line"/>
      <point x="252.25" y="709.0" type="line"/>
      <point x="78.0" y="784.25" type="line"/>
      <point x="36.75" y="658.75" type="line"/>
      <point x="223.0" y="617.25" type="line"/>
      <point x="97.75" y="474.5" type="line"/>
    </contour>
  </outline>
</glyph>
<glyph name="zero" format="2">
  <advance width="750.0"/>
  <unicode hex="0030"/>
  <outline>
    <contour>
      <point x="375.0" y="-18.0" type="curve" smooth="yes"/>
      <point x="601.0" y="-18.0"/>
      <point x="703.5" y="223.0"/>
      <point x="703.5" y="450.0" type="curve" smooth="yes"/>
      <point x="703.5" y="677.0"/>
      <point x="601.0" y="918.0"/>
      <point x="375.0" y="918.0" type="curve" smooth="yes"/>
      <point x="149.0" y="918.0"/>
      <point x="46.5" y="677.0"/>
      <point x="46.5" y="450.0" type="curve" smooth="yes"/>
      <point x="46.5" y="223.0"/>
      <point x="149.0" y="-18.0"/>
    </contour>
    <contour>
      <point x="375.0" y="129.0" type="curve" smooth="yes"/>
      <point x="255.25" y="129.0"/>
      <point x="210.0" y="303.0"/>
      <point x="210.0" y="450.0" type="curve" smooth="yes"/>
      <point x="210.0" y="597.0"/>
      <point x="255.25" y="771.0"/>
      <point x="375.0" y="771.0" type="curve" smooth="yes"/>
      <point x="494.75" y="771.0"/>
      <point x="540.0" y="597.0"/>
      <point x="540.0" y="450.0" type="curve" smooth="yes"/>
      <point x="540.0" y="303.0"/>
      <point x="494.75" y="129.0"/>
    </contour>
  </outline>
</glyph>
<glyph name="one" format="2">
  <advance width="750.0"/>
  <unicode hex="0031"/>
  <outline>
    <contour>
      <point x="347.5" y="0.0" type="line"/>
      <point x="502.5" y="0.0" type="line"/>
      <point x="502.5" y="929.0" type="line"/>
      <point x="153.0" y="754.0" type="line"/>
      <point x="153.0" y="599.5" type="line"/>
      <point x="395.0" y="722.25" type="line"/>
      <point x="347.5" y="763.75" type="line"/>
    </contour>
    <contour>
      <point x="153.0" y="0.0" type="line"/>
      <point x="657.0" y="0.0" type="line"/>
      <point x="657.0" y="130.5" type="line"/>
      <point x="153.0" y="130.5" type="line"/>
    </contour>
  </outline>
</glyph>
<glyph name="two" format="2">
  <advance width="750.0"/>
  <unicode hex="0032"/>
  <outline>
    <contour>
      <point x="94.25" y="0.0" type="line"/>
      <point x="669.25" y="0.0" type="line"/>
      <point x="669.25" y="147.0" type="line"/>
      <point x="253.25" y="147.0" type="line"/>
      <point x="328.0" y="88.75" type="line"/>
      <point x="586.25" y="455.75" type="line" smooth="yes"/>
      <point x="635.25" y="525.75"/>
      <point x="656.75" y="578.5"/>
      <point x="656.75" y="640.75" type="curve" smooth="yes"/>
      <point x="656.75" y="794.75"/>
      <point x="524.75" y="918.0"/>
      <point x="367.0" y="918.0" type="curve" smooth="yes"/>
      <point x="206.0" y="918.0"/>
      <point x="80.75" y="791.0"/>
      <point x="80.75" y="641.5" type="curve" smooth="yes"/>
      <point x="80.75" y="599.5"/>
      <point x="91.0" y="560.5"/>
      <point x="112.0" y="522.0" type="curve"/>
      <point x="293.25" y="522.0" type="line"/>
      <point x="253.75" y="555.0"/>
      <point x="233.75" y="596.25"/>
      <point x="233.75" y="640.75" type="curve" smooth="yes"/>
      <point x="233.75" y="713.25"/>
      <point x="290.75" y="771.0"/>
      <point x="366.0" y="771.0" type="curve" smooth="yes"/>
      <point x="441.25" y="771.0"/>
      <point x="499.25" y="713.25"/>
      <point x="499.25" y="640.75" type="curve" smooth="yes"/>
      <point x="499.25" y="613.25"/>
      <point x="490.5" y="584.0"/>
      <point x="459.0" y="537.0" type="curve" smooth="yes"/>
    </contour>
  </outline>
</glyph>
<glyph name="three" format="2">
  <advance width="750.0"/>
  <unicode hex="0033"/>
  <outline>
    <contour>
      <point x="325.5" y="-18.0" type="curve" smooth="yes"/>
      <point x="503.5" y="-18.0"/>
      <point x="654.0" y="118.25"/>
      <point x="654.0" y="295.5" type="curve" smooth="yes"/>
      <point x="654.0" y="433.25"/>
      <point x="562.75" y="543.75"/>
      <point x="443.0" y="582.0" type="curve"/>
      <point x="613.5" y="900.0" type="line"/>
      <point x="115.5" y="900.0" type="line"/>
      <point x="115.5" y="759.0" type="line"/>
      <point x="434.0" y="759.0" type="line"/>
      <point x="402.5" y="803.5" type="line"/>
      <point x="215.0" y="439.25" type="line"/>
      <point x="250.25" y="458.0"/>
      <point x="284.75" y="468.0"/>
      <point x="324.0" y="468.0" type="curve" smooth="yes"/>
      <point x="427.25" y="468.0"/>
      <point x="499.5" y="392.5"/>
      <point x="499.5" y="299.25" type="curve" smooth="yes"/>
      <point x="499.5" y="203.5"/>
      <point x="423.75" y="129.0"/>
      <point x="327.0" y="129.0" type="curve" smooth="yes"/>
      <point x="232.75" y="129.0"/>
      <point x="158.0" y="199.75"/>
      <point x="138.75" y="288.5" type="curve"/>
      <point x="54.0" y="121.5" type="line"/>
      <point x="111.25" y="37.5"/>
      <point x="211.25" y="-18.0"/>
    </contour>
  </outline>
</glyph>
<glyph name="five" format="2">
  <advance width="750.0"/>
  <unicode hex="0035"/>
  <outline>
    <contour>
      <point x="328.5" y="-18.0" type="curve" smooth="yes"/>
      <point x="506.5" y="-18.0"/>
      <point x="654.0" y="119.5"/>
      <point x="654.0" y="298.25" type="curve" smooth="yes"/>
      <point x="654.0" y="474.5"/>
      <point x="512.5" y="602.5"/>
      <point x="352.75" y="602.5" type="curve" smooth="yes"/>
      <point x="333.25" y="602.5"/>
      <point x="314.75" y="600.75"/>
      <point x="297.5" y="594.75" type="curve"/>
      <point x="297.5" y="757.5" type="line"/>
      <point x="590.5" y="757.5" type="line"/>
      <point x="590.5" y="900.0" type="line"/>
      <point x="165.0" y="900.0" type="line"/>
      <point x="165.0" y="395.75" type="line"/>
      <point x="203.5" y="439.0"/>
      <point x="259.25" y="467.5"/>
      <point x="321.0" y="467.5" type="curve" smooth="yes"/>
      <point x="418.75" y="467.5"/>
      <point x="499.5" y="398.75"/>
      <point x="499.5" y="299.75" type="curve" smooth="yes"/>
      <point x="499.5" y="202.75"/>
      <point x="421.75" y="129.0"/>
      <point x="327.0" y="129.0" type="curve" smooth="yes"/>
      <point x="232.75" y="129.0"/>
      <point x="158.0" y="199.75"/>
      <point x="138.75" y="288.5" type="curve"/>
      <point x="54.0" y="121.5" type="line"/>
      <point x="111.25" y="37.5"/>
      <point x="212.75" y="-18.0"/>
    </contour>
  </outline>
</glyph>
<glyph name="six" format="2">
  <advance width="750.0"/>
  <unicode hex="0036"/>
  <outline>
    <contour>
      <point x="381.0" y="-18.0" type="curve" smooth="yes"/>
      <point x="562.25" y="-18.0"/>
      <point x="705.0" y="118.75"/>
      <point x="705.0" y="295.5" type="curve" smooth="yes"/>
      <point x="705.0" y="468.25"/>
      <point x="567.25" y="603.0"/>
      <point x="398.75" y="603.0" type="curve" smooth="yes"/>
      <point x="351.25" y="603.0"/>
      <point x="304.75" y="592.0"/>
      <point x="262.0" y="551.25" type="curve"/>
      <point x="306.0" y="536.0" type="line"/>
      <point x="504.0" y="900.0" type="line"/>
      <point x="335.0" y="900.0" type="line"/>
      <point x="97.75" y="449.0" type="line" smooth="yes"/>
      <point x="71.75" y="399.0"/>
      <point x="57.0" y="348.75"/>
      <point x="57.0" y="293.75" type="curve" smooth="yes"/>
      <point x="57.0" y="118.75"/>
      <point x="199.75" y="-18.0"/>
    </contour>
    <contour>
      <point x="381.25" y="129.0" type="curve" smooth="yes"/>
      <point x="286.5" y="129.0"/>
      <point x="212.0" y="205.25"/>
      <point x="212.0" y="298.0" type="curve" smooth="yes"/>
      <point x="212.0" y="390.5"/>
      <point x="286.5" y="467.0"/>
      <point x="381.25" y="467.0" type="curve" smooth="yes"/>
      <point x="477.0" y="467.0"/>
      <point x="550.5" y="390.5"/>
      <point x="550.5" y="298.0" type="curve" smooth="yes"/>
      <point x="550.5" y="205.25"/>
      <point x="476.0" y="129.0"/>
    </contour>
  </outline>
</glyph>
<glyph name="seven" format="2">
  <advance width="750.0"/>
  <unicode hex="0037"/>
  <outline>
    <contour>
      <point x="110.0" y="0.0" type="line"/>
      <point x="289.0" y="0.0" type="line"/>
      <point x="717.5" y="900.0" type="line"/>
      <point x="78.0" y="900.0" type="line"/>
      <point x="78.0" y="753.0" type="line"/>
      <point x="555.0" y="753.0" type="line"/>
      <point x="507.5" y="825.0" type="line"/>
    </contour>
  </outline>
</glyph>
<glyph name="C" format="2">
  <advance width="877.5"/>
  <unicode hex="0043"/>
  <anchor x="530.0" y="0.0" name="bottom"/>
  <anchor x="530.0" y="900.0" name="top"/>
  <outline>
    <contour>
      <point x="530.0" y="-18.0" type="curve" smooth="yes"/>
      <point x="651.25" y="-18.0"/>
      <point x="759.5" y="26.25"/>
      <point x="843.75" y="98.5" type="curve"/>
      <point x="797.25" y="290.5" type="line"/>
      <point x="745.0" y="203.75"/>
      <point x="650.0" y="139.5"/>
      <point x="534.5" y="139.5" type="curve" smooth="yes"/>
      <point x="362.75" y="139.5"/>
      <point x="230.5" y="278.0"/>
      <point x="230.5" y="450.0" type="curve" smooth="yes"/>
      <point x="230.5" y="622.0"/>
      <point x="362.75" y="760.5"/>
      <point x="534.5" y="760.5" type="curve" smooth="yes"/>
      <point x="650.5" y="760.5"/>
      <point x="744.25" y="696.25"/>
      <point x="797.25" y="609.5" type="curve"/>
      <point x="843.75" y="801.5" type="line"/>
      <point x="760.25" y="874.5"/>
      <point x="650.5" y="918.0"/>
      <point x="530.0" y="918.0" type="curve" smooth="yes"/>
      <point x="267.75" y="918.0"/>
      <point x="55.5" y="709.0"/>
      <point x="55.5" y="450.0" type="curve" smooth="yes"/>
      <point x="55.5" y="191.0"/>
      <point x="267.75" y="-18.0"/>
    </contour>
  </outline>
</glyph>
<glyph name="M" format="2">
  <advance width="1050.0"/>
  <unicode hex="004D"/>
  <outline>
    <contour>
      <point x="103.5" y="0.0" type="line"/>
      <point x="256.5" y="0.0" type="line"/>
      <point x="256.5" y="297.5" type="line" smooth="yes"/>
      <point x="256.5" y="356.0"/>
      <point x="256.5" y="425.0"/>
      <point x="246.25" y="518.5" type="curve"/>
      <point x="286.25" y="452.0"/>
      <point x="329.5" y="394.5"/>
      <point x="361.0" y="353.0" type="curve" smooth="yes"/>
      <point x="525.75" y="135.75" type="line"/>
      <point x="685.25" y="353.0" type="line" smooth="yes"/>
      <point x="717.25" y="396.75"/>
      <point x="756.5" y="445.25"/>
      <point x="797.75" y="516.25" type="curve"/>
      <point x="787.5" y="424.25"/>
      <point x="787.5" y="355.25"/>
      <point x="787.5" y="297.5" type="curve" smooth="yes"/>
      <point x="787.5" y="0.0" type="line"/>
      <point x="946.5" y="0.0" type="line"/>
      <point x="946.5" y="930.0" type="line"/>
      <point x="529.0" y="387.0" type="line"/>
      <point x="103.5" y="930.0" type="line"/>
    </contour>
  </outline>
</glyph>
<glyph name="N" format="2">
  <advance width="922.5"/>
  <unicode hex="004E"/>
  <anchor x="517.5" y="45.0" name="bottom"/>
  <anchor x="443.25" y="855.0" name="top"/>
  <outline>
    <contour>
      <point x="819.0" y="-30.0" type="line"/>
      <point x="819.0" y="900.0" type="line"/>
      <point x="666.0" y="900.0" type="line"/>
      <point x="666.0" y="357.75" type="line"/>
      <point x="103.5" y="930.0" type="line"/>
      <point x="103.5" y="0.0" type="line"/>
      <point x="256.5" y="0.0" type="line"/>
      <point x="256.5" y="543.0" type="line"/>
    </contour>
  </outline>
</glyph>
<glyph name="Q" format="2">
  <advance width="1060.0"/>
  <unicode hex="0051"/>
  <outline>
    <contour>
      <point x="530.0" y="-18.0" type="curve" smooth="yes"/>
      <point x="792.25" y="-18.0"/>
      <point x="1004.5" y="191.0"/>
      <point x="1004.5" y="450.0" type="curve" smooth="yes"/>
      <point x="1004.5" y="709.0"/>
      <point x="792.25" y="918.0"/>
      <point x="530.0" y="918.0" type="curve" smooth="yes"/>
      <point x="267.75" y="918.0"/>
      <point x="55.5" y="709.0"/>
      <point x="55.5" y="450.0" type="curve" smooth="yes"/>
      <point x="55.5" y="191.0"/>
      <point x="267.75" y="-18.0"/>
    </contour>
    <contour>
      <point x="530.0" y="139.5" type="curve" smooth="yes"/>
      <point x="359.0" y="139.5"/>
      <point x="226.0" y="278.0"/>
      <point x="226.0" y="450.0" type="curve" smooth="yes"/>
      <point x="226.0" y="622.0"/>
      <point x="359.0" y="760.5"/>
      <point x="530.0" y="760.5" type="curve" smooth="yes"/>
      <point x="701.0" y="760.5"/>
      <point x="834.0" y="622.0"/>
      <point x="834.0" y="450.0" type="curve" smooth="yes"/>
      <point x="834.0" y="278.0"/>
      <point x="701.0" y="139.5"/>
    </contour>
    <contour>
      <point x="831.5" y="-30.0" type="line"/>
      <point x="1015.5" y="-30.0" type="line"/>
      <point x="616.5" y="450.0" type="line"/>
      <point x="433.0" y="450.0" type="line"/>
      <point x="715.0" y="111.0" type="line"/>
      <point x="719.5" y="105.0" type="line"/>
    </contour>
  </outline>
</glyph>
<glyph name="R" format="2">
  <advance width="795.0"/>
  <unicode hex="0052"/>
  <anchor x="439.0" y="0.0" name="bottom"/>
  <anchor x="325.0" y="900.0" name="top"/>
  <outline>
    <contour>
      <point x="106.5" y="0.0" type="line"/>
      <point x="265.5" y="0.0" type="line"/>
      <point x="265.5" y="900.0" type="line"/>
      <point x="106.5" y="900.0" type="line"/>
    </contour>
    <contour>
      <point x="186.0" y="360.0" type="line"/>
      <point x="369.25" y="360.0" type="line" smooth="yes"/>
      <point x="552.5" y="360.0"/>
      <point x="671.0" y="475.25"/>
      <point x="671.0" y="625.75" type="curve" smooth="yes"/>
      <point x="671.0" y="773.5"/>
      <point x="558.5" y="900.0"/>
      <point x="369.25" y="900.0" type="curve" smooth="yes"/>
      <point x="186.0" y="900.0" type="line"/>
      <point x="186.0" y="753.0" type="line"/>
      <point x="366.25" y="753.0" type="line" smooth="yes"/>
      <point x="454.25" y="753.0"/>
      <point x="513.5" y="700.0"/>
      <point x="513.5" y="625.75" type="curve" smooth="yes"/>
      <point x="513.5" y="563.25"/>
      <point x="468.5" y="496.5"/>
      <point x="366.25" y="496.5" type="curve" smooth="yes"/>
      <point x="186.0" y="496.5" type="line"/>
    </contour>
    <contour>
      <point x="617.0" y="0.0" type="line"/>
      <point x="798.0" y="0.0" type="line"/>
      <point x="519.5" y="444.0" type="line"/>
      <point x="345.0" y="444.0" type="line"/>
    </contour>
  </outline>
</glyph>
<glyph name="S" format="2">
  <advance width="660.0"/>
  <unicode hex="0053"/>
  <anchor x="318.25" y="0.0" name="bottom"/>
  <anchor x="339.25" y="900.0" name="top"/>
  <outline>
    <contour>
      <point x="325.25" y="-18.0" type="curve" smooth="yes"/>
      <point x="501.25" y="-18.0"/>
      <point x="615.75" y="99.75"/>
      <point x="615.75" y="255.25" type="curve" smooth="yes"/>
      <point x="615.75" y="414.25"/>
      <point x="495.5" y="482.0"/>
      <point x="428.75" y="515.0" type="curve" smooth="yes"/>
      <point x="320.5" y="568.75" type="line" smooth="yes"/>
      <point x="271.75" y="592.75"/>
      <point x="229.75" y="621.75"/>
      <point x="229.75" y="677.0" type="curve" smooth="yes"/>
      <point x="229.75" y="731.0"/>
      <point x="269.75" y="773.0"/>
      <point x="339.25" y="773.0" type="curve" smooth="yes"/>
      <point x="414.5" y="773.0"/>
      <point x="491.25" y="723.5"/>
      <point x="540.0" y="657.75" type="curve"/>
      <point x="582.75" y="838.5" type="line"/>
      <point x="533.5" y="876.75"/>
      <point x="450.0" y="918.0"/>
      <point x="346.5" y="918.0" type="curve" smooth="yes"/>
      <point x="181.5" y="918.0"/>
      <point x="74.25" y="816.25"/>
      <point x="74.25" y="669.0" type="curve" smooth="yes"/>
      <point x="74.25" y="529.75"/>
      <point x="168.75" y="468.0"/>
      <point x="251.75" y="426.75" type="curve" smooth="yes"/>
      <point x="358.75" y="373.0" type="line" smooth="yes"/>
      <point x="392.75" y="356.0"/>
      <point x="460.25" y="320.75"/>
      <point x="460.25" y="245.25" type="curve" smooth="yes"/>
      <point x="460.25" y="179.75"/>
      <point x="409.25" y="129.0"/>
      <point x="330.75" y="129.0" type="curve" smooth="yes"/>
      <point x="238.0" y="129.0"/>
      <point x="148.25" y="191.75"/>
      <point x="103.75" y="272.0" type="curve"/>
      <point x="58.75" y="87.5" type="line"/>
      <point x="115.75" y="28.75"/>
      <point x="216.0" y="-18.0"/>
    </contour>
  </outline>
</glyph>
<glyph name="T" format="2">
  <advance width="705.0"/>
  <unicode hex="0054"/>
  <anchor x="352.5" y="0.0" name="bottom"/>
  <anchor x="352.5" y="450.0" name="center"/>
  <anchor x="352.5" y="900.0" name="top"/>
  <outline>
    <contour>
      <point x="43.5" y="753.0" type="line"/>
      <point x="661.5" y="753.0" type="line"/>
      <point x="661.5" y="900.0" type="line"/>
      <point x="43.5" y="900.0" type="line"/>
    </contour>
    <contour>
      <point x="268.5" y="0.0" type="line"/>
      <point x="436.5" y="0.0" type="line"/>
      <point x="436.5" y="900.0" type="line"/>
      <point x="268.5" y="900.0" type="line"/>
    </contour>
  </outline>
</glyph>
<glyph name="V" format="2">
  <advance width="765.0"/>
  <unicode hex="0056"/>
  <outline>
    <contour>
      <point x="381.5" y="-30.0" type="line"/>
      <point x="383.5" y="-30.0" type="line"/>
      <point x="757.5" y="900.0" type="line"/>
      <point x="593.5" y="900.0" type="line"/>
      <point x="430.5" y="487.0" type="line" smooth="yes"/>
      <point x="406.25" y="425.75"/>
      <point x="388.75" y="383.75"/>
      <point x="371.25" y="300.25" type="curve"/>
      <point x="404.75" y="300.25" type="line"/>
      <point x="385.75" y="384.5"/>
      <point x="365.25" y="430.25"/>
      <point x="343.25" y="487.0" type="curve" smooth="yes"/>
      <point x="180.0" y="900.0" type="line"/>
      <point x="7.5" y="900.0" type="line"/>
    </contour>
  </outline>
</glyph>
<glyph name="X" format="2">
  <advance width="870.0"/>
  <unicode hex="0058"/>
  <outline>
    <contour>
      <point x="6.0" y="0.0" type="line"/>
      <point x="191.5" y="0.0" type="line"/>
      <point x="361.75" y="277.5" type="line" smooth="yes"/>
      <point x="393.0" y="328.25"/>
      <point x="422.25" y="381.0"/>
      <point x="462.75" y="461.5" type="curve"/>
      <point x="406.25" y="461.5" type="line"/>
      <point x="447.0" y="381.0"/>
      <point x="476.0" y="328.25"/>
      <point x="507.25" y="277.5" type="curve" smooth="yes"/>
      <point x="677.0" y="0.0" type="line"/>
      <point x="868.5" y="0.0" type="line"/>
      <point x="547.25" y="523.0" type="line"/>
      <point x="784.5" y="900.0" type="line"/>
      <point x="605.25" y="900.0" type="line"/>
      <point x="514.5" y="760.5" type="line" smooth="yes"/>
      <point x="483.25" y="712.25"/>
      <point x="454.5" y="661.5"/>
      <point x="418.25" y="578.25" type="curve"/>
      <point x="460.0" y="578.25" type="line"/>
      <point x="423.25" y="661.5"/>
      <point x="393.5" y="711.5"/>
      <point x="363.25" y="759.75" type="curve" smooth="yes"/>
      <point x="273.75" y="900.0" type="line"/>
      <point x="85.5" y="900.0" type="line"/>
      <point x="325.0" y="518.25" type="line"/>
    </contour>
  </outline>
</glyph>
<glyph name="Y" format="2">
  <advance width="705.0"/>
  <unicode hex="0059"/>
  <anchor x="353.5" y="0.0" name="bottom"/>
  <anchor x="353.5" y="900.0" name="top"/>
  <anchor x="30.5" y="900.0" name="topleft"/>
  <outline>
    <contour>
      <point x="270.75" y="0.0" type="line"/>
      <point x="434.25" y="0.0" type="line"/>
      <point x="434.25" y="428.25" type="line"/>
      <point x="696.0" y="900.0" type="line"/>
      <point x="523.5" y="900.75" type="line"/>
      <point x="406.0" y="683.0" type="line" smooth="yes"/>
      <point x="383.5" y="641.75"/>
      <point x="363.75" y="605.5"/>
      <point x="340.75" y="535.75" type="curve"/>
      <point x="373.5" y="535.5" type="line"/>
      <point x="353.0" y="604.5"/>
      <point x="331.5" y="642.75"/>
      <point x="310.0" y="683.0" type="curve" smooth="yes"/>
      <point x="193.5" y="900.0" type="line"/>
      <point x="9.0" y="900.0" type="line"/>
      <point x="270.75" y="428.25" type="line"/>
    </contour>
  </outline>
</glyph>
<glyph name="b" format="2">
  <advance width="745.0"/>
  <unicode hex="0062"/>
  <anchor x="381.0" y="0.0" name="bottom"/>
  <anchor x="381.0" y="914.0" name="top"/>
  <outline>
    <contour>
      <point x="404.0" y="-14.0" type="curve" smooth="yes"/>
      <point x="570.5" y="-14.0"/>
      <point x="704.5" y="127.0"/>
      <point x="704.5" y="300.0" type="curve" smooth="yes"/>
      <point x="704.5" y="473.0"/>
      <point x="570.5" y="614.0"/>
      <point x="404.0" y="614.0" type="curve" smooth="yes"/>
      <point x="299.0" y="614.0"/>
      <point x="213.75" y="560.0"/>
      <point x="168.5" y="479.0" type="curve"/>
      <point x="231.0" y="450.75" type="line"/>
      <point x="231.0" y="960.0" type="line"/>
      <point x="73.5" y="960.0" type="line"/>
      <point x="73.5" y="0.0" type="line"/>
      <point x="211.0" y="0.0" type="line"/>
      <point x="211.0" y="150.0" type="line"/>
      <point x="168.5" y="121.25" type="line"/>
      <point x="214.0" y="39.75"/>
      <point x="299.0" y="-14.0"/>
    </contour>
    <contour>
      <point x="385.5" y="125.25" type="curve" smooth="yes"/>
      <point x="291.0" y="125.25"/>
      <point x="215.0" y="203.5"/>
      <point x="215.0" y="300.0" type="curve" smooth="yes"/>
      <point x="215.0" y="396.5"/>
      <point x="291.0" y="474.75"/>
      <point x="385.5" y="474.75" type="curve" smooth="yes"/>
      <point x="480.0" y="474.75"/>
      <point x="556.0" y="396.5"/>
      <point x="556.0" y="300.0" type="curve" smooth="yes"/>
      <point x="556.0" y="203.5"/>
      <point x="480.0" y="125.25"/>
    </contour>
  </outline>
</glyph>
<glyph name="e" format="2">
  <advance width="695.0"/>
  <unicode hex="0065"/>
  <anchor x="353.5" y="0.0" name="bottom"/>
  <anchor x="493.5" y="0.0" name="ogonek"/>
  <anchor x="353.5" y="600.0" name="top"/>
  <outline>
    <contour>
      <point x="378.25" y="-18.0" type="curve" smooth="yes"/>
      <point x="459.5" y="-18.0"/>
      <point x="537.0" y="6.0"/>
      <point x="596.5" y="51.5" type="curve"/>
      <point x="560.5" y="199.25" type="line"/>
      <point x="521.25" y="151.25"/>
      <point x="457.5" y="115.5"/>
      <point x="381.5" y="115.5" type="curve" smooth="yes"/>
      <point x="264.25" y="115.5"/>
      <point x="187.5" y="195.25"/>
      <point x="187.5" y="302.0" type="curve"/>
      <point x="179.25" y="302.0" type="line"/>
      <point x="179.25" y="412.0"/>
      <point x="252.75" y="490.5"/>
      <point x="350.75" y="490.5" type="curve" smooth="yes"/>
      <point x="451.25" y="490.5"/>
      <point x="521.75" y="414.5"/>
      <point x="521.75" y="303.5" type="curve"/>
      <point x="549.0" y="354.75" type="line"/>
      <point x="508.0" y="366.0"/>
      <point x="466.5" y="371.25"/>
      <point x="417.25" y="371.25" type="curve" smooth="yes"/>
      <point x="288.0" y="371.25" type="line" smooth="yes"/>
      <point x="238.5" y="371.25"/>
      <point x="192.5" y="363.25"/>
      <point x="143.0" y="351.25" type="curve"/>
      <point x="143.0" y="274.25" type="line"/>
      <point x="192.5" y="262.25"/>
      <point x="238.5" y="254.25"/>
      <point x="288.0" y="254.25" type="curve" smooth="yes"/>
      <point x="660.5" y="254.25" type="line"/>
      <point x="660.5" y="311.0" type="line" smooth="yes"/>
      <point x="660.5" y="486.0"/>
      <point x="526.5" y="618.0"/>
      <point x="352.25" y="618.0" type="curve" smooth="yes"/>
      <point x="178.75" y="618.0"/>
      <point x="40.5" y="484.25"/>
      <point x="40.5" y="306.0" type="curve" smooth="yes"/>
      <point x="40.5" y="118.75"/>
      <point x="178.75" y="-18.0"/>
    </contour>
  </outline>
</glyph>
<glyph name="f" format="2">
  <advance width="450.0"/>
  <unicode hex="0066"/>
  <anchor x="220.0" y="0.0" name="bottom"/>
  <anchor x="364.0" y="960.0" name="top"/>
  <outline>
    <contour>
      <point x="141.25" y="0.0" type="line"/>
      <point x="298.75" y="0.0" type="line"/>
      <point x="298.75" y="549.0" type="line"/>
      <point x="295.75" y="549.0" type="line"/>
      <point x="295.75" y="760.25" type="line" smooth="yes"/>
      <point x="295.75" y="828.0"/>
      <point x="332.75" y="848.25"/>
      <point x="368.0" y="848.25" type="curve" smooth="yes"/>
      <point x="397.25" y="848.25"/>
      <point x="423.0" y="835.5"/>
      <point x="445.0" y="809.0" type="curve"/>
      <point x="477.0" y="941.0" type="line"/>
      <point x="443.75" y="962.5"/>
      <point x="399.75" y="972.0"/>
      <point x="356.0" y="972.0" type="curve" smooth="yes"/>
      <point x="237.0" y="972.0"/>
      <point x="144.25" y="897.75"/>
      <point x="144.25" y="757.75" type="curve" smooth="yes"/>
      <point x="144.25" y="550.0" type="line"/>
      <point x="141.25" y="550.0" type="line"/>
    </contour>
    <contour>
      <point x="30.0" y="474.0" type="line"/>
      <point x="420.0" y="474.0" type="line"/>
      <point x="420.0" y="600.0" type="line"/>
      <point x="30.0" y="600.0" type="line"/>
    </contour>
  </outline>
</glyph>
<glyph name="g" format="2">
  <advance width="745.0"/>
  <unicode hex="0067"/>
  <anchor x="381.0" y="-360.0" name="bottom"/>
  <anchor x="602.75" y="300.0" name="center"/>
  <anchor x="381.0" y="600.0" name="top"/>
  <outline>
    <contour>
      <point x="330.75" y="-318.0" type="curve" smooth="yes"/>
      <point x="511.5" y="-318.0"/>
      <point x="671.5" y="-203.0"/>
      <point x="671.5" y="-6.0" type="curve" smooth="yes"/>
      <point x="671.5" y="600.0" type="line"/>
      <point x="534.0" y="600.0" type="line"/>
      <point x="534.0" y="450.0" type="line"/>
      <point x="575.0" y="478.75" type="line"/>
      <point x="529.5" y="560.25"/>
      <point x="445.25" y="614.0"/>
      <point x="340.25" y="614.0" type="curve" smooth="yes"/>
      <point x="174.5" y="614.0"/>
      <point x="40.5" y="473.0"/>
      <point x="40.5" y="300.0" type="curve" smooth="yes"/>
      <point x="40.5" y="127.0"/>
      <point x="174.5" y="-14.0"/>
      <point x="340.25" y="-14.0" type="curve" smooth="yes"/>
      <point x="445.25" y="-14.0"/>
      <point x="529.5" y="39.75"/>
      <point x="575.0" y="121.25" type="curve"/>
      <point x="532.5" y="149.25" type="line"/>
      <point x="532.5" y="14.25" type="line" smooth="yes"/>
      <point x="532.5" y="-100.25"/>
      <point x="456.25" y="-180.5"/>
      <point x="330.5" y="-180.5" type="curve" smooth="yes"/>
      <point x="243.5" y="-180.5"/>
      <point x="173.25" y="-140.0"/>
      <point x="131.0" y="-82.75" type="curve"/>
      <point x="92.0" y="-242.25" type="line"/>
      <point x="152.25" y="-289.25"/>
      <point x="237.25" y="-318.0"/>
    </contour>
    <contour>
      <point x="359.5" y="125.25" type="curve" smooth="yes"/>
      <point x="265.0" y="125.25"/>
      <point x="189.0" y="203.5"/>
      <point x="189.0" y="300.0" type="curve" smooth="yes"/>
      <point x="189.0" y="396.5"/>
      <point x="265.0" y="474.75"/>
      <point x="359.5" y="474.75" type="curve" smooth="yes"/>
      <point x="454.0" y="474.75"/>
      <point x="530.0" y="396.5"/>
      <point x="530.0" y="300.0" type="curve" smooth="yes"/>
      <point x="530.0" y="203.5"/>
      <point x="454.0" y="125.25"/>
    </contour>
  </outline>
</glyph>
<glyph name="l" format="2">
  <advance width="307.5"/>
  <unicode hex="006C"/>
  <anchor x="153.75" y="0.0" name="bottom"/>
  <anchor x="153.75" y="480.0" name="center"/>
  <anchor x="363.75" y="420.0" name="periodcentered"/>
  <anchor x="153.75" y="960.0" name="top"/>
  <anchor x="232.5" y="960.0" name="topright"/>
  <outline>
    <contour>
      <point x="75.0" y="0.0" type="line"/>
      <point x="232.5" y="0.0" type="line"/>
      <point x="232.5" y="960.0" type="line"/>
      <point x="75.0" y="960.0" type="line"/>
    </contour>
  </outline>
</glyph>
<glyph name="r" format="2">
  <advance width="457.5"/>
  <unicode hex="0072"/>
  <anchor x="150.0" y="0.0" name="bottom"/>
  <anchor x="252.0" y="600.0" name="top"/>
  <outline>
    <contour>
      <point x="73.5" y="0.0" type="line"/>
      <point x="231.0" y="0.0" type="line"/>
      <point x="231.0" y="438.0" type="line"/>
      <point x="215.5" y="461.0" type="line"/>
      <point x="215.5" y="600.0" type="line"/>
      <point x="73.5" y="600.0" type="line"/>
    </contour>
    <contour>
      <point x="164.25" y="277.75" type="curve"/>
      <point x="231.0" y="277.75" type="line"/>
      <point x="231.0" y="400.75"/>
      <point x="299.75" y="469.5"/>
      <point x="402.75" y="469.5" type="curve" smooth="yes"/>
      <point x="417.5" y="469.5"/>
      <point x="433.0" y="467.5"/>
      <point x="446.0" y="463.5" type="curve"/>
      <point x="410.75" y="606.0" type="line"/>
      <point x="251.25" y="606.0"/>
      <point x="164.25" y="469.5"/>
    </contour>
  </outline>
</glyph>
<glyph name="s" format="2">
  <advance width="525.0"/>
  <unicode hex="0073"/>
  <anchor x="262.5" y="0.0" name="bottom"/>
  <anchor x="265.5" y="600.0" name="top"/>
  <outline>
    <contour>
      <point x="260.0" y="-18.0" type="curve" smooth="yes"/>
      <point x="392.25" y="-18.0"/>
      <point x="484.5" y="61.0"/>
      <point x="484.5" y="175.0" type="curve" smooth="yes"/>
      <point x="484.5" y="296.0"/>
      <point x="388.5" y="333.25"/>
      <point x="326.5" y="356.25" type="curve" smooth="yes"/>
      <point x="247.75" y="385.75" type="line" smooth="yes"/>
      <point x="211.5" y="399.5"/>
      <point x="197.25" y="418.75"/>
      <point x="197.25" y="440.25" type="curve" smooth="yes"/>
      <point x="197.25" y="467.5"/>
      <point x="219.75" y="491.5"/>
      <point x="265.75" y="491.5" type="curve" smooth="yes"/>
      <point x="322.5" y="491.5"/>
      <point x="387.5" y="457.25"/>
      <point x="430.0" y="399.25" type="curve"/>
      <point x="467.5" y="547.25" type="line"/>
      <point x="430.0" y="586.75"/>
      <point x="350.5" y="618.0"/>
      <point x="270.25" y="618.0" type="curve" smooth="yes"/>
      <point x="136.0" y="618.0"/>
      <point x="57.75" y="529.25"/>
      <point x="57.75" y="428.0" type="curve" smooth="yes"/>
      <point x="57.75" y="315.0"/>
      <point x="151.0" y="276.0"/>
      <point x="205.0" y="255.25" type="curve" smooth="yes"/>
      <point x="288.25" y="223.5" type="line" smooth="yes"/>
      <point x="313.0" y="214.25"/>
      <point x="345.0" y="201.0"/>
      <point x="345.0" y="164.75" type="curve" smooth="yes"/>
      <point x="345.0" y="133.25"/>
      <point x="321.25" y="108.5"/>
      <point x="268.5" y="108.5" type="curve" smooth="yes"/>
      <point x="197.0" y="108.5"/>
      <point x="124.5" y="153.5"/>
      <point x="86.75" y="209.0" type="curve"/>
      <point x="47.0" y="56.5" type="line"/>
      <point x="95.0" y="9.0"/>
      <point x="183.0" y="-18.0"/>
    </contour>
  </outline>
</glyph>
<glyph name="v" format="2">
  <advance width="660.0"/>
  <unicode hex="0076"/>
  <outline>
    <contour>
      <point x="330.0" y="-30.0" type="line"/>
      <point x="652.5" y="600.0" type="line"/>
      <point x="485.0" y="600.0" type="line"/>
      <point x="383.75" y="390.25" type="line" smooth="yes"/>
      <point x="357.75" y="336.75"/>
      <point x="335.25" y="291.25"/>
      <point x="312.25" y="201.5" type="curve"/>
      <point x="355.25" y="201.25" type="line"/>
      <point x="332.25" y="291.25"/>
      <point x="310.0" y="336.5"/>
      <point x="284.0" y="390.25" type="curve" smooth="yes"/>
      <point x="183.0" y="600.0" type="line"/>
      <point x="7.5" y="600.0" type="line"/>
    </contour>
  </outline>
</glyph>
<glyph name="x" format="2">
  <advance width="630.0"/>
  <unicode hex="0078"/>
  <outline>
    <contour>
      <point x="15.0" y="0.0" type="line"/>
      <point x="188.5" y="0.0" type="line"/>
      <point x="269.75" y="131.0" type="line" smooth="yes"/>
      <point x="298.25" y="177.25"/>
      <point x="327.75" y="228.0"/>
      <point x="347.0" y="282.0" type="curve"/>
      <point x="279.0" y="282.0" type="line"/>
      <point x="298.25" y="228.0"/>
      <point x="327.75" y="177.25"/>
      <point x="356.25" y="131.0" type="curve" smooth="yes"/>
      <point x="437.5" y="0.0" type="line"/>
      <point x="615.0" y="0.0" type="line"/>
      <point x="406.25" y="314.25" type="line"/>
      <point x="596.5" y="600.0" type="line"/>
      <point x="423.0" y="600.0" type="line"/>
      <point x="366.0" y="508.0" type="line" smooth="yes"/>
      <point x="337.75" y="461.75"/>
      <point x="308.75" y="412.0"/>
      <point x="289.5" y="358.0" type="curve"/>
      <point x="342.5" y="358.0" type="line"/>
      <point x="323.25" y="412.0"/>
      <point x="295.25" y="463.5"/>
      <point x="267.0" y="508.0" type="curve" smooth="yes"/>
      <point x="209.0" y="600.0" type="line"/>
      <point x="33.5" y="600.0" type="line"/>
      <point x="223.0" y="314.25" type="line"/>
    </contour>
  </outline>
</glyph>
<glyph name="y" format="2">
  <advance width="680.0"/>
  <unicode hex="0079"/>
  <anchor x="456.5" y="0.0" name="bottom"/>
  <anchor x="342.5" y="600.0" name="top"/>
  <outline>
    <contour>
      <point x="56.0" y="-300.0" type="line"/>
      <point x="225.5" y="-300.0" type="line"/>
      <point x="672.5" y="600.0" type="line"/>
      <point x="505.0" y="600.0" type="line"/>
      <point x="391.5" y="370.0" type="line" smooth="yes"/>
      <point x="349.25" y="285.0"/>
      <point x="333.5" y="238.0"/>
      <point x="307.5" y="149.0" type="curve"/>
      <point x="373.0" y="148.0" type="line"/>
      <point x="347.0" y="238.0"/>
      <point x="335.0" y="284.0"/>
      <point x="293.5" y="370.0" type="curve" smooth="yes"/>
      <point x="182.0" y="600.0" type="line"/>
      <point x="7.5" y="600.0" type="line"/>
      <point x="254.75" y="98.5" type="line"/>
    </contour>
  </outline>
</glyph>
<glyph name="z" format="2">
  <advance width="530.0"/>
  <unicode hex="007A"/>
  <anchor x="257.0" y="0.0" name="bottom"/>
  <anchor x="265.0" y="300.0" name="center"/>
  <anchor x="274.0" y="600.0" name="top"/>
  <outline>
    <contour>
      <point x="220.5" y="76.0" type="line"/>
      <point x="178.0" y="132.0" type="line"/>
      <point x="486.0" y="132.0" type="line"/>
      <point x="486.0" y="0.0" type="line"/>
      <point x="26.5" y="0.0" type="line"/>
      <point x="309.5" y="524.0" type="line"/>
      <point x="352.0" y="468.0" type="line"/>
      <point x="46.0" y="468.0" type="line"/>
      <point x="46.0" y="600.0" type="line"/>
      <point x="503.5" y="600.0" type="line"/>
    </contour>
  </outline>
</glyph>
<glyph name="bar" format="2">
  <advance width="480.0"/>
  <unicode hex="007C"/>
  <outline>
    <contour>
      <point x="174.0" y="-180.0" type="line"/>
      <point x="306.0" y="-180.0" type="line"/>
      <point x="306.0" y="960.0" type="line"/>
      <point x="174.0" y="960.0" type="line"/>
    </contour>
  </outline>
</glyph>
<glyph name="asciitilde" format="2">
  <advance width="750.0"/>
  <unicode hex="007E"/>
  <outline>
    <contour>
      <point x="99.75" y="322.5" type="line"/>
      <point x="128.25" y="385.75"/>
      <point x="171.0" y="426.0"/>
      <point x="230.5" y="426.0" type="curve" smooth="yes"/>
      <point x="316.0" y="426.0"/>
      <point x="403.0" y="342.0"/>
      <point x="516.5" y="342.0" type="curve" smooth="yes"/>
      <point x="599.75" y="342.0"/>
      <point x="674.25" y="387.75"/>
      <point x="715.5" y="466.0" type="curve"/>
      <point x="650.25" y="577.5" type="line"/>
      <point x="621.75" y="514.25"/>
      <point x="579.0" y="474.0"/>
      <point x="519.5" y="474.0" type="curve" smooth="yes"/>
      <point x="434.0" y="474.0"/>
      <point x="347.0" y="558.0"/>
      <point x="233.5" y="558.0" type="curve" smooth="yes"/>
      <point x="150.25" y="558.0"/>
      <point x="75.75" y="512.25"/>
      <point x="34.5" y="434.0" type="curve"/>
    </contour>
  </outline>
</glyph>
<glyph name="yen" format="2">
  <advance width="750.0"/>
  <unicode hex="00A5"/>
  <anchor x="53.0" y="900.0" name="topleft"/>
  <outline>
    <contour>
      <point x="293.25" y="0.0" type="line"/>
      <point x="456.75" y="0.0" type="line"/>
      <point x="456.75" y="428.25" type="line"/>
      <point x="718.5" y="900.0" type="line"/>
      <point x="546.0" y="900.75" type="line"/>
      <point x="428.5" y="683.0" type="line" smooth="yes"/>
      <point x="406.0" y="641.75"/>
      <point x="386.25" y="605.5"/>
      <point x="363.25" y="535.75" type="curve"/>
      <point x="396.0" y="535.5" type="line"/>
      <point x="375.5" y="604.5"/>
      <point x="354.0" y="642.75"/>
      <point x="332.5" y="683.0" type="curve" smooth="yes"/>
      <point x="216.0" y="900.0" type="line"/>
      <point x="31.5" y="900.0" type="line"/>
      <point x="293.25" y="428.25" type="line"/>
    </contour>
    <contour>
      <point x="76.5" y="300.0" type="line"/>
      <point x="673.5" y="300.0" type="line"/>
      <point x="673.5" y="402.0" type="line"/>
      <point x="76.5" y="402.0" type="line"/>
    </contour>
    <contour>
      <point x="76.5" y="498.0" type="line"/>
      <point x="673.5" y="498.0" type="line"/>
      <point x="673.5" y="600.0" type="line"/>
      <point x="451.0" y="600.0" type="line"/>
      <point x="385.0" y="500.0" type="line"/>
      <point x="303.0" y="600.0" type="line"/>
      <point x="76.5" y="600.0" type="line"/>
    </contour>
  </outline>
</glyph>
<glyph name="section" format="2">
  <advance width="750.0"/>
  <unicode hex="00A7"/>
  <outline>
    <contour>
      <point x="366.0" y="-192.0" type="curve" smooth="yes"/>
      <point x="509.5" y="-192.0"/>
      <point x="616.5" y="-95.75"/>
      <point x="616.5" y="40.75" type="curve" smooth="yes"/>
      <point x="616.5" y="137.0"/>
      <point x="562.5" y="194.0"/>
      <point x="513.25" y="226.5" type="curve"/>
      <point x="493.0" y="191.0" type="line"/>
      <point x="603.25" y="210.75"/>
      <point x="688.5" y="288.5"/>
      <point x="688.5" y="405.75" type="curve" smooth="yes"/>
      <point x="688.5" y="537.5"/>
      <point x="580.75" y="593.25"/>
      <point x="521.5" y="620.5" type="curve" smooth="yes"/>
      <point x="355.0" y="698.25" type="line" smooth="yes"/>
      <point x="327.5" y="711.0"/>
      <point x="297.75" y="733.5"/>
      <point x="297.75" y="773.5" type="curve" smooth="yes"/>
      <point x="297.75" y="812.5"/>
      <point x="326.75" y="845.5"/>
      <point x="381.75" y="845.5" type="curve" smooth="yes"/>
      <point x="439.0" y="845.5"/>
      <point x="505.25" y="810.0"/>
      <point x="546.5" y="753.25" type="curve"/>
      <point x="587.25" y="899.25" type="line"/>
      <point x="551.75" y="936.5"/>
      <point x="472.0" y="972.0"/>
      <point x="386.0" y="972.0" type="curve" smooth="yes"/>
      <point x="249.75" y="972.0"/>
      <point x="157.5" y="880.75"/>
      <point x="157.5" y="759.25" type="curve" smooth="yes"/>
      <point x="157.5" y="677.75"/>
      <point x="197.75" y="628.75"/>
      <point x="241.75" y="596.5" type="curve"/>
      <point x="263.0" y="633.0" type="line"/>
      <point x="146.75" y="613.25"/>
      <point x="61.5" y="531.5"/>
      <point x="61.5" y="413.25" type="curve" smooth="yes"/>
      <point x="61.5" y="279.25"/>
      <point x="171.5" y="228.5"/>
      <point x="228.5" y="201.75" type="curve" smooth="yes"/>
      <point x="400.5" y="122.0" type="line" smooth="yes"/>
      <point x="423.0" y="111.75"/>
      <point x="476.25" y="85.75"/>
      <point x="476.25" y="27.75" type="curve" smooth="yes"/>
      <point x="476.25" y="-23.5"/>
      <point x="436.5" y="-65.0"/>
      <point x="371.25" y="-65.0" type="curve" smooth="yes"/>
      <point x="298.5" y="-65.0"/>
      <point x="221.5" y="-13.75"/>
      <point x="189.5" y="41.0" type="curve"/>
      <point x="145.5" y="-111.25" type="line"/>
      <point x="192.25" y="-160.0"/>
      <point x="282.25" y="-192.0"/>
    </contour>
    <contour>
      <point x="427.0" y="279.5" type="curve" smooth="yes"/>
      <point x="414.75" y="279.5"/>
      <point x="401.25" y="280.75"/>
      <point x="388.5" y="284.75" type="curve"/>
      <point x="345.25" y="300.5"/>
      <point x="325.0" y="310.75"/>
      <point x="304.75" y="321.5" type="curve" smooth="yes"/>
      <point x="262.75" y="343.75"/>
      <point x="201.75" y="370.0"/>
      <point x="201.75" y="436.25" type="curve" smooth="yes"/>
      <point x="201.75" y="495.25"/>
      <point x="249.25" y="542.5"/>
      <point x="323.75" y="542.5" type="curve" smooth="yes"/>
      <point x="336.5" y="542.5"/>
      <point x="351.75" y="541.25"/>
      <point x="364.5" y="537.0" type="curve"/>
      <point x="375.0" y="532.5"/>
      <point x="383.75" y="530.5"/>
      <point x="445.25" y="500.5" type="curve" smooth="yes"/>
      <point x="490.5" y="478.25"/>
      <point x="548.25" y="452.0"/>
      <point x="548.25" y="386.75" type="curve" smooth="yes"/>
      <point x="548.25" y="327.75"/>
      <point x="500.75" y="279.5"/>
    </contour>
  </outline>
</glyph>
<glyph name="copyright" format="2">
  <advance width="1260.0"/>
  <unicode hex="00A9"/>
  <outline>
    <contour>
      <point x="630.0" y="-192.0" type="curve" smooth="yes"/>
      <point x="938.0" y="-192.0"/>
      <point x="1188.0" y="55.0"/>
      <point x="1188.0" y="360.0" type="curve" smooth="yes"/>
      <point x="1188.0" y="665.0"/>
      <point x="938.0" y="912.0"/>
      <point x="630.0" y="912.0" type="curve" smooth="yes"/>
      <point x="322.0" y="912.0"/>
      <point x="72.0" y="665.0"/>
      <point x="72.0" y="360.0" type="curve" smooth="yes"/>
      <point x="72.0" y="55.0"/>
      <point x="322.0" y="-192.0"/>
    </contour>
    <contour>
      <point x="654.75" y="78.0" type="curve" smooth="yes"/>
      <point x="730.75" y="78.0"/>
      <point x="799.5" y="103.5"/>
      <point x="852.0" y="150.25" type="curve"/>
      <point x="813.0" y="300.25" type="line"/>
      <point x="782.75" y="249.25"/>
      <point x="727.75" y="207.5"/>
      <point x="659.0" y="207.5" type="curve" smooth="yes"/>
      <point x="568.5" y="207.5"/>
      <point x="502.5" y="276.25"/>
      <point x="502.5" y="360.0" type="curve" smooth="yes"/>
      <point x="502.5" y="443.75"/>
      <point x="569.25" y="512.5"/>
      <point x="659.0" y="512.5" type="curve" smooth="yes"/>
      <point x="727.75" y="512.5"/>
      <point x="782.75" y="469.5"/>
      <point x="813.0" y="419.0" type="curve"/>
      <point x="852.0" y="570.5" type="line"/>
      <point x="799.5" y="617.25"/>
      <point x="730.0" y="642.0"/>
      <point x="656.25" y="642.0" type="curve" smooth="yes"/>
      <point x="491.25" y="642.0"/>
      <point x="361.0" y="515.75"/>
      <point x="361.0" y="360.0" type="curve" smooth="yes"/>
      <point x="361.0" y="203.5"/>
      <point x="492.75" y="78.0"/>
    </contour>
    <contour>
      <point x="630.0" y="-70.5" type="curve" smooth="yes"/>
      <point x="392.25" y="-70.5"/>
      <point x="199.5" y="122.25"/>
      <point x="199.5" y="360.0" type="curve" smooth="yes"/>
      <point x="199.5" y="597.75"/>
      <point x="392.25" y="790.5"/>
      <point x="630.0" y="790.5" type="curve" smooth="yes"/>
      <point x="867.75" y="790.5"/>
      <point x="1060.5" y="597.75"/>
      <point x="1060.5" y="360.0" type="curve" smooth="yes"/>
      <point x="1060.5" y="122.25"/>
      <point x="867.75" y="-70.5"/>
    </contour>
  </outline>
</glyph>
<glyph name="ordfeminine" format="2">
  <advance width="480.0"/>
  <unicode hex="00AA"/>
  <outline>
    <contour>
      <point x="216.0" y="412.0" type="curve" smooth="yes"/>
      <point x="278.0" y="412.0"/>
      <point x="330.0" y="444.0"/>
      <point x="356.0" y="503.0" type="curve"/>
      <point x="315.75" y="508.0" type="line"/>
      <point x="315.75" y="420.0" type="line"/>
      <point x="431.25" y="420.0" type="line"/>
      <point x="431.25" y="780.0" type="line"/>
      <point x="315.75" y="780.0" type="line"/>
      <point x="315.75" y="692.0" type="line"/>
      <point x="356.0" y="697.0" type="line"/>
      <point x="330.0" y="756.0"/>
      <point x="278.0" y="788.0"/>
      <point x="216.0" y="788.0" type="curve" smooth="yes"/>
      <point x="117.0" y="788.0"/>
      <point x="36.0" y="704.0"/>
      <point x="36.0" y="600.0" type="curve" smooth="yes"/>
      <point x="36.0" y="496.0"/>
      <point x="116.0" y="412.0"/>
    </contour>
    <contour>
      <point x="234.0" y="512.5" type="curve" smooth="yes"/>
      <point x="186.0" y="512.5"/>
      <point x="147.75" y="551.75"/>
      <point x="147.75" y="600.0" type="curve" smooth="yes"/>
      <point x="147.75" y="648.25"/>
      <point x="186.0" y="687.5"/>
      <point x="234.0" y="687.5" type="curve" smooth="yes"/>
      <point x="282.0" y="687.5"/>
      <point x="320.25" y="648.25"/>
      <point x="320.25" y="600.0" type="curve" smooth="yes"/>
      <point x="320.25" y="551.75"/>
      <point x="282.0" y="512.5"/>
    </contour>
  </outline>
</glyph>
<glyph name="guillemetleft" format="2">
  <advance width="622.5"/>
  <unicode hex="00AB"/>
  <outline>
    <contour>
      <point x="446.25" y="60.0" type="line"/>
      <point x="594.75" y="60.0" type="line"/>
      <point x="432.75" y="300.0" type="line"/>
      <point x="594.75" y="540.0" type="line"/>
      <point x="446.25" y="540.0" type="line"/>
      <point x="284.25" y="300.0" type="line"/>
    </contour>
    <contour>
      <point x="183.75" y="60.0" type="line"/>
      <point x="332.25" y="60.0" type="line"/>
      <point x="170.25" y="300.0" type="line"/>
      <point x="332.25" y="540.0" type="line"/>
      <point x="183.75" y="540.0" type="line"/>
      <point x="21.75" y="300.0" type="line"/>
    </contour>
  </outline>
</glyph>
<glyph name="logicalnot" format="2">
  <advance width="750.0"/>
  <unicode hex="00AC"/>
  <outline>
    <contour>
      <point x="540.0" y="195.0" type="line"/>
      <point x="667.5" y="195.0" type="line"/>
      <point x="667.5" y="515.25" type="line"/>
      <point x="52.5" y="515.25" type="line"/>
      <point x="52.5" y="384.75" type="line"/>
      <point x="540.0" y="384.75" type="line"/>
    </contour>
  </outline>
</glyph>
<glyph name="registered" format="2">
  <advance width="600.0"/>
  <unicode hex="00AE"/>
  <outline>
    <contour>
      <point x="300.0" y="396.0" type="curve" smooth="yes"/>
      <point x="449.0" y="396.0"/>
      <point x="570.0" y="514.0"/>
      <point x="570.0" y="660.0" type="curve" smooth="yes"/>
      <point x="570.0" y="806.0"/>
      <point x="449.0" y="924.0"/>
      <point x="300.0" y="924.0" type="curve" smooth="yes"/>
      <point x="151.0" y="924.0"/>
      <point x="30.0" y="806.0"/>
      <point x="30.0" y="660.0" type="curve" smooth="yes"/>
      <point x="30.0" y="514.0"/>
      <point x="151.0" y="396.0"/>
    </contour>
    <contour>
      <point x="300.0" y="469.5" type="curve" smooth="yes"/>
      <point x="195.5" y="469.5"/>
      <point x="109.5" y="555.5"/>
      <point x="109.5" y="660.0" type="curve" smooth="yes"/>
      <point x="109.5" y="764.5"/>
      <point x="195.5" y="850.5"/>
      <point x="300.0" y="850.5" type="curve" smooth="yes"/>
      <point x="404.5" y="850.5"/>
      <point x="490.5" y="764.5"/>
      <point x="490.5" y="660.0" type="curve" smooth="yes"/>
      <point x="490.5" y="555.5"/>
      <point x="404.5" y="469.5"/>
    </contour>
    <contour>
      <point x="204.5" y="546.0" type="line"/>
      <point x="273.5" y="546.0" type="line"/>
      <point x="273.5" y="786.0" type="line"/>
      <point x="204.5" y="786.0" type="line"/>
    </contour>
    <contour>
      <point x="343.0" y="546.0" type="line"/>
      <point x="421.0" y="546.0" type="line"/>
      <point x="358.0" y="636.0" type="line"/>
      <point x="281.0" y="636.0" type="line"/>
    </contour>
    <contour>
      <point x="236.0" y="616.0" type="line"/>
      <point x="311.5" y="616.0" type="line" smooth="yes"/>
      <point x="370.5" y="616.0"/>
      <point x="409.5" y="649.0"/>
      <point x="409.5" y="700.0" type="curve" smooth="yes"/>
      <point x="409.5" y="747.0"/>
      <point x="372.5" y="786.0"/>
      <point x="311.5" y="786.0" type="curve" smooth="yes"/>
      <point x="236.0" y="786.0" type="line"/>
      <point x="236.0" y="731.0" type="line"/>
      <point x="300.5" y="731.0" type="line" smooth="yes"/>
      <point x="324.5" y="731.0"/>
      <point x="340.5" y="719.5"/>
      <point x="340.5" y="699.0" type="curve" smooth="yes"/>
      <point x="340.5" y="681.5"/>
      <point x="326.5" y="667.0"/>
      <point x="300.5" y="667.0" type="curve" smooth="yes"/>
      <point x="236.0" y="667.0" type="line"/>
    </contour>
  </outline>
</glyph>
<glyph name="degree" format="2">
  <advance width="480.0"/>
  <unicode hex="00B0"/>
  <outline>
    <contour>
      <point x="240.0" y="535.5" type="curve" smooth="yes"/>
      <point x="347.75" y="535.5"/>
      <point x="434.25" y="619.75"/>
      <point x="434.25" y="723.75" type="curve" smooth="yes"/>
      <point x="434.25" y="827.75"/>
      <point x="347.75" y="912.0"/>
      <point x="240.0" y="912.0" type="curve" smooth="yes"/>
      <point x="132.25" y="912.0"/>
      <point x="45.75" y="827.75"/>
      <point x="45.75" y="723.75" type="curve" smooth="yes"/>
      <point x="45.75" y="619.75"/>
      <point x="132.25" y="535.5"/>
    </contour>
    <contour>
      <point x="240.0" y="637.5" type="curve" smooth="yes"/>
      <point x="190.0" y="637.5"/>
      <point x="151.5" y="676.0"/>
      <point x="151.5" y="723.75" type="curve" smooth="yes"/>
      <point x="151.5" y="771.5"/>
      <point x="190.0" y="810.0"/>
      <point x="240.0" y="810.0" type="curve" smooth="yes"/>
      <point x="289.0" y="810.0"/>
      <point x="328.5" y="771.5"/>
      <point x="328.5" y="723.75" type="curve" smooth="yes"/>
      <point x="328.5" y="676.0"/>
      <point x="289.0" y="637.5"/>
    </contour>
  </outline>
</glyph>
<glyph name="paragraph" format="2">
  <advance width="750.0"/>
  <unicode hex="00B6"/>
  <outline>
    <contour>
      <point x="292.5" y="-180.0" type="line"/>
      <point x="424.5" y="-180.0" type="line"/>
      <point x="424.5" y="841.5" type="line"/>
      <point x="535.5" y="841.5" type="line"/>
      <point x="535.5" y="-180.0" type="line"/>
      <point x="667.5" y="-180.0" type="line"/>
      <point x="667.5" y="960.0" type="line"/>
      <point x="357.5" y="960.0" type="line" smooth="yes"/>
      <point x="120.5" y="960.0"/>
      <point x="34.5" y="795.75"/>
      <point x="34.5" y="663.5" type="curve" smooth="yes"/>
      <point x="34.5" y="546.75"/>
      <point x="104.0" y="398.75"/>
      <point x="292.5" y="371.25" type="curve"/>
    </contour>
  </outline>
</glyph>
<glyph name="guillemetright" format="2">
  <advance width="622.5"/>
  <unicode hex="00BB"/>
  <outline>
    <contour>
      <point x="290.25" y="60.0" type="line"/>
      <point x="438.75" y="60.0" type="line"/>
      <point x="600.75" y="300.0" type="line"/>
      <point x="438.75" y="540.0" type="line"/>
      <point x="290.25" y="540.0" type="line"/>
      <point x="452.25" y="300.0" type="line"/>
    </contour>
    <contour>
      <point x="27.75" y="60.0" type="line"/>
      <point x="176.25" y="60.0" type="line"/>
      <point x="338.25" y="300.0" type="line"/>
      <point x="176.25" y="540.0" type="line"/>
      <point x="27.75" y="540.0" type="line"/>
      <point x="189.75" y="300.0" type="line"/>
    </contour>
  </outline>
</glyph>
<glyph name="questiondown" format="2">
  <advance width="480.0"/>
  <unicode hex="00BF"/>
  <outline>
    <contour>
      <point x="250.75" y="-318.0" type="curve" smooth="yes"/>
      <point x="313.0" y="-318.0"/>
      <point x="364.75" y="-299.25"/>
      <point x="408.0" y="-267.25" type="curve"/>
      <point x="408.0" y="-104.25" type="line"/>
      <point x="378.5" y="-140.5"/>
      <point x="332.25" y="-176.0"/>
      <point x="272.0" y="-176.0" type="curve" smooth="yes"/>
      <point x="211.25" y="-176.0"/>
      <point x="169.5" y="-143.25"/>
      <point x="169.5" y="-84.75" type="curve" smooth="yes"/>
      <point x="169.5" y="21.5"/>
      <point x="301.5" y="81.75"/>
      <point x="301.5" y="276.0" type="curve"/>
      <point x="178.5" y="276.0" type="line"/>
      <point x="161.25" y="127.25"/>
      <point x="21.0" y="56.25"/>
      <point x="21.0" y="-102.0" type="curve" smooth="yes"/>
      <point x="21.0" y="-226.25"/>
      <point x="110.5" y="-318.0"/>
    </contour>
    <contour>
      <point x="240.0" y="421.5" type="curve" smooth="yes"/>
      <point x="294.75" y="421.5"/>
      <point x="337.5" y="464.25"/>
      <point x="337.5" y="519.0" type="curve" smooth="yes"/>
      <point x="337.5" y="573.75"/>
      <point x="294.75" y="616.5"/>
      <point x="240.0" y="616.5" type="curve" smooth="yes"/>
      <point x="185.0" y="616.5"/>
      <point x="142.5" y="573.75"/>
      <point x="142.5" y="519.0" type="curve" smooth="yes"/>
      <point x="142.5" y="464.25"/>
      <point x="185.0" y="421.5"/>
    </contour>
  </outline>
</glyph>
<glyph name="multiply" format="2">
  <advance width="750.0"/>
  <unicode hex="00D7"/>
  <outline>
    <contour>
      <point x="560.25" y="171.75" type="line"/>
      <point x="653.25" y="264.75" type="line"/>
      <point x="189.75" y="728.25" type="line"/>
      <point x="96.75" y="635.25" type="line"/>
    </contour>
    <contour>
      <point x="186.25" y="171.75" type="line"/>
      <point x="653.25" y="638.75" type="line"/>
      <point x="563.75" y="728.25" type="line"/>
      <point x="96.75" y="261.25" type="line"/>
    </contour>
  </outline>
</glyph>
<glyph name="ae" format="2">
  <advance width="1102.5"/>
  <unicode hex="00E6"/>
  <anchor x="547.5" y="0.0" name="bottom"/>
  <anchor x="547.5" y="600.0" name="top"/>
  <outline>
    <contour>
      <point x="785.75" y="-18.0" type="curve" smooth="yes"/>
      <point x="867.0" y="-18.0"/>
      <point x="944.5" y="6.0"/>
      <point x="1004.0" y="51.5" type="curve"/>
      <point x="968.0" y="199.25" type="line"/>
      <point x="928.75" y="151.25"/>
      <point x="865.0" y="115.5"/>
      <point x="789.0" y="115.5" type="curve" smooth="yes"/>
      <point x="671.75" y="115.5"/>
      <point x="595.0" y="195.25"/>
      <point x="595.0" y="302.0" type="curve"/>
      <point x="586.75" y="302.0" type="line"/>
      <point x="586.75" y="412.0"/>
      <point x="660.25" y="490.5"/>
      <point x="758.25" y="490.5" type="curve" smooth="yes"/>
      <point x="858.75" y="490.5"/>
      <point x="929.25" y="414.5"/>
      <point x="929.25" y="303.5" type="curve"/>
      <point x="956.5" y="354.75" type="line"/>
      <point x="915.5" y="366.0"/>
      <point x="874.0" y="371.25"/>
      <point x="824.75" y="371.25" type="curve" smooth="yes"/>
      <point x="694.75" y="371.25" type="line" smooth="yes"/>
      <point x="645.25" y="371.25"/>
      <point x="599.25" y="363.25"/>
      <point x="549.75" y="351.25" type="curve"/>
      <point x="549.75" y="274.25" type="line"/>
      <point x="599.25" y="262.25"/>
      <point x="645.25" y="254.25"/>
      <point x="694.75" y="254.25" type="curve" smooth="yes"/>
      <point x="1068.0" y="254.25" type="line"/>
      <point x="1068.0" y="311.0" type="line" smooth="yes"/>
      <point x="1068.0" y="486.0"/>
      <point x="934.25" y="618.0"/>
      <point x="760.0" y="618.0" type="curve" smooth="yes"/>
      <point x="678.0" y="618.0"/>
      <point x="604.5" y="587.25"/>
      <point x="549.75" y="536.5" type="curve"/>
      <point x="499.5" y="587.25"/>
      <point x="420.5" y="617.0"/>
      <point x="325.0" y="617.0" type="curve" smooth="yes"/>
      <point x="237.75" y="617.0"/>
      <point x="152.25" y="592.5"/>
      <point x="85.5" y="551.5" type="curve"/>
      <point x="118.75" y="417.0" type="line"/>
      <point x="166.75" y="459.25"/>
      <point x="233.0" y="489.5"/>
      <point x="308.75" y="489.5" type="curve" smooth="yes"/>
      <point x="410.0" y="489.5"/>
      <point x="471.75" y="435.5"/>
      <point x="476.75" y="368.25" type="curve"/>
      <point x="473.25" y="348.0" type="line"/>
      <point x="420.0" y="371.25"/>
      <point x="364.75" y="382.5"/>
      <point x="304.25" y="382.5" type="curve" smooth="yes"/>
      <point x="147.75" y="382.5"/>
      <point x="40.5" y="304.5"/>
      <point x="40.5" y="184.0" type="curve" smooth="yes"/>
      <point x="40.5" y="64.5"/>
      <point x="135.0" y="-12.5"/>
      <point x="282.5" y="-12.5" type="curve" smooth="yes"/>
      <point x="381.75" y="-12.5"/>
      <point x="468.0" y="26.75"/>
      <point x="526.0" y="94.0" type="curve"/>
      <point x="585.0" y="25.0"/>
      <point x="676.0" y="-18.0"/>
    </contour>
    <contour>
      <point x="295.5" y="109.0" type="curve" smooth="yes"/>
      <point x="229.0" y="109.0"/>
      <point x="189.0" y="140.75"/>
      <point x="189.0" y="186.25" type="curve" smooth="yes"/>
      <point x="189.0" y="236.75"/>
      <point x="239.25" y="265.5"/>
      <point x="320.25" y="265.5" type="curve" smooth="yes"/>
      <point x="372.0" y="265.5"/>
      <point x="430.5" y="254.25"/>
      <point x="474.25" y="235.5" type="curve"/>
      <point x="476.75" y="220.75" type="line"/>
      <point x="458.75" y="158.5"/>
      <point x="379.75" y="109.0"/>
    </contour>
  </outline>
</glyph>
<glyph name="eth" format="2">
  <advance width="725.0"/>
  <unicode hex="00F0"/>
  <outline>
    <contour>
      <point x="363.5" y="-18.0" type="curve" smooth="yes"/>
      <point x="542.5" y="-18.0"/>
      <point x="684.5" y="121.0"/>
      <point x="684.5" y="310.0" type="curve" smooth="yes"/>
      <point x="684.5" y="400.75"/>
      <point x="652.5" y="494.0"/>
      <point x="586.0" y="596.25" type="curve" smooth="yes"/>
      <point x="535.0" y="674.0"/>
      <point x="418.5" y="825.5"/>
      <point x="302.5" y="960.0" type="curve"/>
      <point x="133.0" y="960.0" type="line"/>
      <point x="255.0" y="819.0"/>
      <point x="376.0" y="677.0"/>
      <point x="470.0" y="536.0" type="curve"/>
      <point x="515.5" y="540.5" type="line"/>
      <point x="469.75" y="591.25"/>
      <point x="409.25" y="612.0"/>
      <point x="341.75" y="612.0" type="curve" smooth="yes"/>
      <point x="175.75" y="612.0"/>
      <point x="40.5" y="473.0"/>
      <point x="40.5" y="301.0" type="curve" smooth="yes"/>
      <point x="40.5" y="124.0"/>
      <point x="183.5" y="-18.0"/>
    </contour>
    <contour>
      <point x="362.25" y="124.5" type="curve" smooth="yes"/>
      <point x="266.0" y="124.5"/>
      <point x="189.75" y="203.0"/>
      <point x="189.75" y="300.25" type="curve" smooth="yes"/>
      <point x="189.75" y="397.25"/>
      <point x="266.0" y="475.5"/>
      <point x="362.25" y="475.5" type="curve" smooth="yes"/>
      <point x="458.0" y="475.5"/>
      <point x="535.25" y="397.25"/>
      <point x="535.25" y="300.25" type="curve" smooth="yes"/>
      <point x="535.25" y="203.0"/>
      <point x="458.0" y="124.5"/>
    </contour>
    <contour>
      <point x="178.0" y="651.75" type="line"/>
      <point x="543.0" y="889.5" type="line"/>
      <point x="499.0" y="957.5" type="line"/>
      <point x="134.0" y="720.75" type="line"/>
    </contour>
  </outline>
</glyph>
<glyph name="eogonek" format="2">
  <advance width="695.0"/>
  <unicode hex="0119"/>
  <anchor x="355.0" y="600.0" name="top"/>
  <outline>
    <contour>
      <point x="549.25" y="-316.5" type="curve"/>
      <point x="577.25" y="-197.25" type="line"/>
      <point x="530.0" y="-196.5"/>
      <point x="494.75" y="-173.25"/>
      <point x="494.75" y="-120.5" type="curve" smooth="yes"/>
      <point x="494.75" y="-76.25"/>
      <point x="519.5" y="-35.25"/>
      <point x="596.5" y="51.5" type="curve"/>
      <point x="548.5" y="249.25" type="line"/>
      <point x="578.25" y="214.75" type="line"/>
      <point x="542.5" y="160.0"/>
      <point x="470.25" y="115.5"/>
      <point x="381.5" y="115.5" type="curve" smooth="yes"/>
      <point x="264.25" y="115.5"/>
      <point x="187.5" y="195.25"/>
      <point x="187.5" y="302.0" type="curve"/>
      <point x="179.25" y="302.0" type="line"/>
      <point x="179.25" y="412.0"/>
      <point x="252.75" y="490.5"/>
      <point x="350.75" y="490.5" type="curve" smooth="yes"/>
      <point x="451.25" y="490.5"/>
      <point x="521.75" y="414.5"/>
      <point x="521.75" y="303.5" type="curve"/>
      <point x="549.0" y="354.75" type="line"/>
      <point x="508.0" y="366.0"/>
      <point x="466.5" y="371.25"/>
      <point x="417.25" y="371.25" type="curve" smooth="yes"/>
      <point x="288.0" y="371.25" type="line" smooth="yes"/>
      <point x="238.5" y="371.25"/>
      <point x="192.5" y="363.25"/>
      <point x="143.0" y="351.25" type="curve"/>
      <point x="143.0" y="274.25" type="line"/>
      <point x="192.5" y="262.25"/>
      <point x="238.5" y="254.25"/>
      <point x="288.0" y="254.25" type="curve" smooth="yes"/>
      <point x="660.5" y="254.25" type="line"/>
      <point x="660.5" y="311.0" type="line" smooth="yes"/>
      <point x="660.5" y="486.0"/>
      <point x="526.5" y="618.0"/>
      <point x="352.25" y="618.0" type="curve" smooth="yes"/>
      <point x="178.75" y="618.0"/>
      <point x="40.5" y="484.25"/>
      <point x="40.5" y="306.0" type="curve" smooth="yes"/>
      <point x="40.5" y="118.75"/>
      <point x="178.75" y="-18.0"/>
      <point x="378.25" y="-18.0" type="curve" smooth="yes"/>
      <point x="412.75" y="-18.0"/>
      <point x="446.5" y="-13.0"/>
      <point x="479.25" y="-3.25" type="curve"/>
      <point x="464.25" y="34.5" type="line"/>
      <point x="383.5" y="-32.75"/>
      <point x="357.25" y="-97.75"/>
      <point x="357.25" y="-153.0" type="curve" smooth="yes"/>
      <point x="357.25" y="-263.0"/>
      <point x="440.5" y="-316.5"/>
    </contour>
  </outline>
</glyph>
<glyph name="idotless" format="2">
  <advance width="307.5"/>
  <unicode hex="0131"/>
  <anchor x="153.75" y="0.0" name="bottom"/>
  <anchor x="153.75" y="0.0" name="ogonek"/>
  <anchor x="153.75" y="600.0" name="top"/>
  <outline>
    <contour>
      <point x="75.0" y="0.0" type="line"/>
      <point x="232.5" y="0.0" type="line"/>
      <point x="232.5" y="600.0" type="line"/>
      <point x="75.0" y="600.0" type="line"/>
    </contour>
  </outline>
</glyph>
<glyph name="kgreenlandic" format="2">
  <advance width="660.0"/>
  <unicode hex="0138"/>
  <anchor x="346.0" y="0.0" name="bottom"/>
  <anchor x="300.0" y="600.0" name="top"/>
  <outline>
    <contour>
      <point x="469.0" y="0.0" type="line"/>
      <point x="657.0" y="0.0" type="line"/>
      <point x="376.0" y="369.0" type="line"/>
      <point x="362.5" y="295.75" type="line"/>
      <point x="594.75" y="600.0" type="line"/>
      <point x="423.25" y="600.0" type="line"/>
      <point x="220.5" y="330.0" type="line"/>
    </contour>
    <contour>
      <point x="73.5" y="0.0" type="line"/>
      <point x="226.5" y="0.0" type="line"/>
      <point x="226.5" y="600.0" type="line"/>
      <point x="73.5" y="600.0" type="line"/>
    </contour>
  </outline>
</glyph>
<glyph name="Eng" format="2">
  <advance width="990.0"/>
  <unicode hex="014A"/>
  <anchor x="495.0" y="0.0" name="bottom"/>
  <anchor x="495.0" y="900.0" name="top"/>
  <outline>
    <contour>
      <point x="565.25" y="-198.0" type="curve" smooth="yes"/>
      <point x="698.0" y="-198.0"/>
      <point x="819.0" y="-116.25"/>
      <point x="819.0" y="68.5" type="curve" smooth="yes"/>
      <point x="819.0" y="900.0" type="line"/>
      <point x="666.0" y="900.0" type="line"/>
      <point x="666.0" y="342.75" type="line"/>
      <point x="103.5" y="930.0" type="line"/>
      <point x="103.5" y="0.0" type="line"/>
      <point x="256.5" y="0.0" type="line"/>
      <point x="256.5" y="538.5" type="line"/>
      <point x="666.0" y="110.0" type="line"/>
      <point x="666.0" y="96.25" type="line" smooth="yes"/>
      <point x="666.0" y="-7.25"/>
      <point x="614.75" y="-46.5"/>
      <point x="550.75" y="-46.5" type="curve" smooth="yes"/>
      <point x="496.25" y="-46.5"/>
      <point x="451.5" y="-19.0"/>
      <point x="424.5" y="24.0" type="curve"/>
      <point x="381.0" y="-132.0" type="line"/>
      <point x="426.0" y="-177.75"/>
      <point x="496.75" y="-198.0"/>
    </contour>
  </outline>
</glyph>
<glyph name="eng" format="2">
  <advance width="705.0"/>
  <unicode hex="014B"/>
  <outline>
    <contour>
      <point x="443.5" y="-312.0" type="line"/>
      <point x="558.25" y="-312.0"/>
      <point x="643.5" y="-236.5"/>
      <point x="643.5" y="-105.25" type="curve" smooth="yes"/>
      <point x="643.5" y="355.5" type="line" smooth="yes"/>
      <point x="643.5" y="522.25"/>
      <point x="527.25" y="618.0"/>
      <point x="400.25" y="618.0" type="curve" smooth="yes"/>
      <point x="272.0" y="618.0"/>
      <point x="164.5" y="523.25"/>
      <point x="164.5" y="351.5" type="curve"/>
      <point x="231.0" y="336.75" type="line"/>
      <point x="231.0" y="430.75"/>
      <point x="292.5" y="475.5"/>
      <point x="358.5" y="475.5" type="curve" smooth="yes"/>
      <point x="439.75" y="475.5"/>
      <point x="486.0" y="408.5"/>
      <point x="486.0" y="334.5" type="curve" smooth="yes"/>
      <point x="486.0" y="-104.75" type="line" smooth="yes"/>
      <point x="486.0" y="-162.0"/>
      <point x="459.75" y="-184.5"/>
      <point x="413.25" y="-184.5" type="curve"/>
    </contour>
    <contour>
      <point x="73.5" y="0.0" type="line"/>
      <point x="231.0" y="0.0" type="line"/>
      <point x="231.0" y="417.25" type="line"/>
      <point x="215.5" y="445.5" type="line"/>
      <point x="215.5" y="600.0" type="line"/>
      <point x="73.5" y="600.0" type="line"/>
    </contour>
  </outline>
</glyph>
<glyph name="oe" format="2">
  <advance width="1157.5"/>
  <unicode hex="0153"/>
  <anchor x="578.75" y="0.0" name="bottom"/>
  <anchor x="578.75" y="600.0" name="top"/>
  <outline>
    <contour>
      <point x="362.5" y="-18.0" type="curve" smooth="yes"/>
      <point x="453.25" y="-18.0"/>
      <point x="535.25" y="19.25"/>
      <point x="593.25" y="78.25" type="curve"/>
      <point x="652.75" y="18.5"/>
      <point x="738.25" y="-18.0"/>
      <point x="840.75" y="-18.0" type="curve" smooth="yes"/>
      <point x="922.0" y="-18.0"/>
      <point x="999.5" y="6.0"/>
      <point x="1059.0" y="51.5" type="curve"/>
      <point x="1023.0" y="199.25" type="line"/>
      <point x="983.75" y="151.25"/>
      <point x="920.0" y="115.5"/>
      <point x="844.0" y="115.5" type="curve" smooth="yes"/>
      <point x="726.75" y="115.5"/>
      <point x="650.0" y="195.25"/>
      <point x="650.0" y="302.0" type="curve"/>
      <point x="641.75" y="302.0" type="line"/>
      <point x="641.75" y="412.0"/>
      <point x="715.25" y="490.5"/>
      <point x="813.25" y="490.5" type="curve" smooth="yes"/>
      <point x="907.75" y="490.5"/>
      <point x="976.0" y="423.5"/>
      <point x="982.75" y="324.5" type="curve"/>
      <point x="1005.5" y="357.0" type="line"/>
      <point x="967.5" y="366.75"/>
      <point x="926.75" y="371.25"/>
      <point x="879.75" y="371.25" type="curve" smooth="yes"/>
      <point x="728.0" y="371.25" type="line" smooth="yes"/>
      <point x="678.5" y="371.25"/>
      <point x="632.5" y="363.25"/>
      <point x="583.0" y="351.25" type="curve"/>
      <point x="583.0" y="274.25" type="line"/>
      <point x="632.5" y="262.25"/>
      <point x="678.5" y="254.25"/>
      <point x="728.0" y="254.25" type="curve" smooth="yes"/>
      <point x="1123.0" y="254.25" type="line"/>
      <point x="1123.0" y="311.0" type="line" smooth="yes"/>
      <point x="1123.0" y="486.0"/>
      <point x="989.0" y="618.0"/>
      <point x="814.75" y="618.0" type="curve" smooth="yes"/>
      <point x="726.5" y="618.0"/>
      <point x="647.0" y="582.5"/>
      <point x="590.25" y="524.0" type="curve"/>
      <point x="532.25" y="581.75"/>
      <point x="452.25" y="618.0"/>
      <point x="362.5" y="618.0" type="curve" smooth="yes"/>
      <point x="184.5" y="618.0"/>
      <point x="40.5" y="476.0"/>
      <point x="40.5" y="300.0" type="curve" smooth="yes"/>
      <point x="40.5" y="124.0"/>
      <point x="184.5" y="-18.0"/>
    </contour>
    <contour>
      <point x="362.5" y="124.5" type="curve" smooth="yes"/>
      <point x="266.0" y="124.5"/>
      <point x="189.75" y="202.75"/>
      <point x="189.75" y="300.0" type="curve" smooth="yes"/>
      <point x="189.75" y="397.25"/>
      <point x="266.0" y="475.5"/>
      <point x="362.5" y="475.5" type="curve" smooth="yes"/>
      <point x="458.0" y="475.5"/>
      <point x="535.25" y="397.25"/>
      <point x="535.25" y="300.0" type="curve" smooth="yes"/>
      <point x="535.25" y="202.75"/>
      <point x="458.0" y="124.5"/>
    </contour>
  </outline>
</glyph>
<glyph name="Schwa" format="2">
  <advance width="1050.0"/>
  <unicode hex="018F"/>
  <outline>
    <contour>
      <point x="520.0" y="-18.0" type="curve" smooth="yes"/>
      <point x="782.25" y="-18.0"/>
      <point x="994.5" y="191.0"/>
      <point x="994.5" y="450.0" type="curve" smooth="yes"/>
      <point x="994.5" y="709.0"/>
      <point x="782.25" y="918.0"/>
      <point x="520.0" y="918.0" type="curve" smooth="yes"/>
      <point x="395.75" y="918.0"/>
      <point x="286.0" y="874.5"/>
      <point x="202.5" y="801.5" type="curve"/>
      <point x="249.0" y="612.5" type="line"/>
      <point x="302.75" y="699.25"/>
      <point x="397.25" y="763.5"/>
      <point x="520.0" y="763.5" type="curve" smooth="yes"/>
      <point x="693.25" y="763.5"/>
      <point x="828.5" y="624.25"/>
      <point x="828.5" y="450.0" type="curve" smooth="yes"/>
      <point x="828.5" y="275.75"/>
      <point x="693.25" y="135.0"/>
      <point x="520.0" y="135.0" type="curve" smooth="yes"/>
      <point x="347.5" y="135.0"/>
      <point x="212.5" y="275.75"/>
      <point x="212.5" y="450.0" type="curve"/>
      <point x="155.5" y="390.0" type="line"/>
      <point x="709.0" y="390.0" type="line" smooth="yes"/>
      <point x="766.0" y="390.0"/>
      <point x="824.0" y="398.0"/>
      <point x="881.0" y="410.0" type="curve"/>
      <point x="881.0" y="508.0" type="line"/>
      <point x="824.0" y="520.0"/>
      <point x="766.0" y="528.0"/>
      <point x="709.0" y="528.0" type="curve" smooth="yes"/>
      <point x="46.5" y="528.0" type="line"/>
      <point x="46.5" y="451.25" type="line" smooth="yes"/>
      <point x="46.5" y="191.0"/>
      <point x="258.5" y="-18.0"/>
    </contour>
  </outline>
</glyph>
<glyph name="uhorn" format="2">
  <advance width="840.0"/>
  <unicode hex="01B0"/>
  <anchor x="351.0" y="0.0" name="bottom"/>
  <anchor x="348.0" y="600.0" name="top"/>
  <outline>
    <contour>
      <point x="304.75" y="-18.0" type="curve" smooth="yes"/>
      <point x="433.0" y="-18.0"/>
      <point x="540.5" y="76.75"/>
      <point x="540.5" y="248.5" type="curve"/>
      <point x="474.0" y="263.25" type="line"/>
      <point x="474.0" y="173.0"/>
      <point x="412.5" y="124.5"/>
      <point x="346.0" y="124.5" type="curve" smooth="yes"/>
      <point x="265.5" y="124.5"/>
      <point x="219.0" y="191.25"/>
      <point x="219.0" y="265.5" type="curve" smooth="yes"/>
      <point x="219.0" y="600.0" type="line"/>
      <point x="61.5" y="600.0" type="line"/>
      <point x="61.5" y="244.5" type="line" smooth="yes"/>
      <point x="61.5" y="77.75"/>
      <point x="177.75" y="-18.0"/>
    </contour>
    <contour>
      <point x="488.0" y="0.0" type="line"/>
      <point x="631.5" y="0.0" type="line"/>
      <point x="631.5" y="437.25" type="line"/>
      <point x="621.0" y="442.5" type="line"/>
      <point x="621.0" y="600.0" type="line"/>
      <point x="474.0" y="600.0" type="line"/>
      <point x="474.0" y="180.5" type="line"/>
      <point x="488.0" y="154.5" type="line"/>
    </contour>
    <contour>
      <point x="672.75" y="389.0" type="curve" smooth="yes"/>
      <point x="756.25" y="389.0"/>
      <point x="831.0" y="452.0"/>
      <point x="831.0" y="568.0" type="curve" smooth="yes"/>
      <point x="831.0" y="597.0"/>
      <point x="826.0" y="628.0"/>
      <point x="807.0" y="660.0" type="curve"/>
      <point x="676.5" y="660.0" type="line"/>
      <point x="695.5" y="627.0"/>
      <point x="700.5" y="592.0"/>
      <point x="700.5" y="568.0" type="curve" smooth="yes"/>
      <point x="700.5" y="512.75"/>
      <point x="668.5" y="489.5"/>
      <point x="635.25" y="489.5" type="curve" smooth="yes"/>
      <point x="608.5" y="489.5"/>
      <point x="584.0" y="502.25"/>
      <point x="570.0" y="528.25" type="curve"/>
      <point x="570.0" y="425.5" type="line"/>
      <point x="597.5" y="401.75"/>
      <point x="634.5" y="389.0"/>
    </contour>
  </outline>
</glyph>
<glyph name="Ezh" format="2">
  <advance width="660.0"/>
  <unicode hex="01B7"/>
  <anchor x="302.0" y="0.0" name="bottom"/>
  <anchor x="325.75" y="900.0" name="top"/>
  <outline>
    <contour>
      <point x="297.5" y="-18.0" type="curve" smooth="yes"/>
      <point x="476.0" y="-18.0"/>
      <point x="627.0" y="119.75"/>
      <point x="627.0" y="299.25" type="curve" smooth="yes"/>
      <point x="627.0" y="449.5"/>
      <point x="520.75" y="568.25"/>
      <point x="387.0" y="597.25" type="curve"/>
      <point x="395.5" y="543.25" type="line"/>
      <point x="586.25" y="900.0" type="line"/>
      <point x="75.0" y="900.0" type="line"/>
      <point x="75.0" y="757.5" type="line"/>
      <point x="401.5" y="757.5" type="line"/>
      <point x="373.75" y="803.5" type="line"/>
      <point x="188.75" y="441.25" type="line"/>
      <point x="223.0" y="459.75"/>
      <point x="257.25" y="469.5"/>
      <point x="296.0" y="469.5" type="curve" smooth="yes"/>
      <point x="399.0" y="469.5"/>
      <point x="471.0" y="394.0"/>
      <point x="471.0" y="300.75" type="curve" smooth="yes"/>
      <point x="471.0" y="205.0"/>
      <point x="395.5" y="130.5"/>
      <point x="299.0" y="130.5" type="curve" smooth="yes"/>
      <point x="201.75" y="130.5"/>
      <point x="125.5" y="205.75"/>
      <point x="108.5" y="298.25" type="curve"/>
      <point x="22.5" y="127.5" type="line"/>
      <point x="78.25" y="40.0"/>
      <point x="180.75" y="-18.0"/>
    </contour>
  </outline>
</glyph>
<glyph name="gravecomb" format="2">
  <unicode hex="0300"/>
  <anchor x="422.0" y="600.0" name="_top"/>
  <outline>
    <contour>
      <point x="363.5" y="681.0" type="line"/>
      <point x="489.0" y="681.0" type="line"/>
      <point x="397.5" y="879.0" type="line"/>
      <point x="224.25" y="879.0" type="line"/>
    </contour>
  </outline>
</glyph>
<glyph name="hungarumlautcomb" format="2">
  <unicode hex="030B"/>
  <anchor x="310.0" y="600.0" name="_top"/>
  <outline>
    <contour>
      <point x="223.5" y="681.0" type="line"/>
      <point x="330.25" y="825.0" type="line"/>
      <point x="220.5" y="870.0" type="line"/>
      <point x="144.75" y="726.0" type="line"/>
    </contour>
    <contour>
      <point x="463.5" y="681.0" type="line"/>
      <point x="570.25" y="825.0" type="line"/>
      <point x="460.5" y="870.0" type="line"/>
      <point x="384.75" y="726.0" type="line"/>
    </contour>
  </outline>
</glyph>
<glyph name="dblgravecomb" format="2">
  <unicode hex="030F"/>
  <anchor x="410.0" y="600.0" name="_top"/>
  <outline>
    <contour>
      <point x="475.25" y="681.0" type="line"/>
      <point x="591.75" y="681.0" type="line"/>
      <point x="529.5" y="870.0" type="line"/>
      <point x="364.5" y="870.0" type="line"/>
    </contour>
    <contour>
      <point x="235.25" y="681.0" type="line"/>
      <point x="351.75" y="681.0" type="line"/>
      <point x="289.5" y="870.0" type="line"/>
      <point x="124.5" y="870.0" type="line"/>
    </contour>
  </outline>
</glyph>
<glyph name="dotbelowcomb" format="2">
  <unicode hex="0323"/>
  <anchor x="360.0" y="0.0" name="_bottom"/>
  <anchor x="360.0" y="-252.0" name="bottom"/>
  <outline>
    <contour>
      <point x="360.0" y="-267.75" type="curve" smooth="yes"/>
      <point x="410.0" y="-267.75"/>
      <point x="447.75" y="-229.0"/>
      <point x="447.75" y="-180.0" type="curve" smooth="yes"/>
      <point x="447.75" y="-130.0"/>
      <point x="410.0" y="-92.25"/>
      <point x="360.0" y="-92.25" type="curve" smooth="yes"/>
      <point x="311.0" y="-92.25"/>
      <point x="272.25" y="-130.0"/>
      <point x="272.25" y="-180.0" type="curve" smooth="yes"/>
      <point x="272.25" y="-229.0"/>
      <point x="311.0" y="-267.75"/>
    </contour>
  </outline>
</glyph>
<glyph name="dieresisbelowcomb" format="2">
  <unicode hex="0324"/>
  <anchor x="360.0" y="0.0" name="_top"/>
  <outline>
    <contour>
      <point x="291.0" y="-264.75" type="curve" smooth="yes"/>
      <point x="338.75" y="-264.75"/>
      <point x="375.75" y="-227.25"/>
      <point x="375.75" y="-180.0" type="curve" smooth="yes"/>
      <point x="375.75" y="-132.25"/>
      <point x="338.75" y="-95.25"/>
      <point x="291.0" y="-95.25" type="curve" smooth="yes"/>
      <point x="243.75" y="-95.25"/>
      <point x="206.25" y="-132.25"/>
      <point x="206.25" y="-180.0" type="curve" smooth="yes"/>
      <point x="206.25" y="-227.25"/>
      <point x="243.75" y="-264.75"/>
    </contour>
    <contour>
      <point x="429.0" y="-264.75" type="curve" smooth="yes"/>
      <point x="476.75" y="-264.75"/>
      <point x="513.75" y="-227.25"/>
      <point x="513.75" y="-180.0" type="curve" smooth="yes"/>
      <point x="513.75" y="-132.25"/>
      <point x="476.75" y="-95.25"/>
      <point x="429.0" y="-95.25" type="curve" smooth="yes"/>
      <point x="381.75" y="-95.25"/>
      <point x="344.25" y="-132.25"/>
      <point x="344.25" y="-180.0" type="curve" smooth="yes"/>
      <point x="344.25" y="-227.25"/>
      <point x="381.75" y="-264.75"/>
    </contour>
  </outline>
</glyph>
<glyph name="commaaccentcomb" format="2">
  <unicode hex="0326"/>
  <anchor x="360.0" y="0.0" name="_bottom"/>
  <anchor x="280.0" y="-330.0" name="bottom"/>
  <outline>
    <contour>
      <point x="199.5" y="-330.0" type="curve"/>
      <point x="360.5" y="-330.0" type="line"/>
      <point x="402.0" y="-265.0"/>
      <point x="427.75" y="-192.0"/>
      <point x="433.75" y="-111.0" type="curve"/>
      <point x="286.25" y="-111.0" type="line"/>
      <point x="279.25" y="-199.75"/>
      <point x="246.75" y="-271.75"/>
    </contour>
  </outline>
</glyph>
<glyph name="cedillacomb" format="2">
  <unicode hex="0327"/>
  <anchor x="427.5" y="0.0" name="_bottom"/>
  <anchor x="272.0" y="-180.0" name="bottom"/>
  <outline>
    <contour>
      <point x="164.0" y="-189.0" type="line"/>
      <point x="361.0" y="-189.0" type="line"/>
      <point x="497.25" y="0.0" type="line"/>
      <point x="357.75" y="0.0" type="line"/>
    </contour>
  </outline>
</glyph>
<glyph name="brevebelowcomb" format="2">
  <unicode hex="032E"/>
  <anchor x="360.0" y="0.0" name="_bottom"/>
  <anchor x="360.0" y="-249.0" name="bottom"/>
  <outline>
    <contour>
      <point x="360.0" y="-258.0" type="curve" smooth="yes"/>
      <point x="471.5" y="-258.0"/>
      <point x="558.0" y="-176.5"/>
      <point x="558.0" y="-66.0" type="curve"/>
      <point x="441.5" y="-66.0" type="line"/>
      <point x="441.5" y="-111.0"/>
      <point x="403.75" y="-147.5"/>
      <point x="360.0" y="-147.5" type="curve" smooth="yes"/>
      <point x="316.25" y="-147.5"/>
      <point x="278.5" y="-111.0"/>
      <point x="278.5" y="-66.0" type="curve"/>
      <point x="162.0" y="-66.0" type="line"/>
      <point x="162.0" y="-174.75"/>
      <point x="249.5" y="-258.0"/>
    </contour>
  </outline>
</glyph>
<glyph name="macronbelowcomb" format="2">
  <unicode hex="0331"/>
  <anchor x="360.0" y="0.0" name="_bottom"/>
  <outline>
    <contour>
      <point x="210.0" y="-222.0" type="line"/>
      <point x="510.0" y="-222.0" type="line"/>
      <point x="510.0" y="-138.0" type="line"/>
      <point x="210.0" y="-138.0" type="line"/>
    </contour>
  </outline>
</glyph>
<glyph name="pi" format="2">
  <advance width="705.0"/>
  <unicode hex="03C0"/>
  <anchor x="352.5" y="0.0" name="bottom"/>
  <anchor x="352.5" y="600.0" name="top"/>
  <outline>
    <contour>
      <point x="474.0" y="0.0" type="line"/>
      <point x="631.5" y="0.0" type="line"/>
      <point x="631.5" y="600.0" type="line"/>
      <point x="474.0" y="600.0" type="line"/>
    </contour>
    <contour>
      <point x="73.5" y="0.0" type="line"/>
      <point x="231.0" y="0.0" type="line"/>
      <point x="231.0" y="600.0" type="line"/>
      <point x="73.5" y="600.0" type="line"/>
    </contour>
    <contour>
      <point x="133.5" y="457.5" type="line"/>
      <point x="571.5" y="457.5" type="line"/>
      <point x="571.5" y="600.0" type="line"/>
      <point x="133.5" y="600.0" type="line"/>
    </contour>
  </outline>
</glyph>
<glyph name="endash" format="2">
  <advance width="720.0"/>
  <unicode hex="2013"/>
  <outline>
    <contour>
      <point x="52.5" y="234.0" type="line"/>
      <point x="667.5" y="234.0" type="line"/>
      <point x="667.5" y="366.0" type="line"/>
      <point x="52.5" y="366.0" type="line"/>
    </contour>
  </outline>
</glyph>
<glyph name="emdash" format="2">
  <advance width="1440.0"/>
  <unicode hex="2014"/>
  <outline>
    <contour>
      <point x="60.0" y="231.0" type="line"/>
      <point x="1380.0" y="231.0" type="line"/>
      <point x="1380.0" y="369.0" type="line"/>
      <point x="60.0" y="369.0" type="line"/>
    </contour>
  </outline>
</glyph>
<glyph name="quotesinglbase" format="2">
  <advance width="285.0"/>
  <unicode hex="201A"/>
  <outline>
    <contour>
      <point x="-8.25" y="-150.0" type="curve"/>
      <point x="153.0" y="-150.0" type="line"/>
      <point x="213.25" y="-59.0"/>
      <point x="244.0" y="49.5"/>
      <point x="244.0" y="172.5" type="curve"/>
      <point x="91.0" y="172.5" type="line"/>
      <point x="91.0" y="34.75"/>
      <point x="49.5" y="-70.0"/>
    </contour>
  </outline>
</glyph>
<glyph name="dagger" format="2">
  <advance width="600.0"/>
  <unicode hex="2020"/>
  <outline>
    <contour>
      <point x="225.75" y="0.0" type="line"/>
      <point x="374.25" y="0.0" type="line"/>
      <point x="357.5" y="663.0" type="line"/>
      <point x="308.25" y="579.75" type="line"/>
      <point x="537.0" y="568.5" type="line"/>
      <point x="537.0" y="692.25" type="line"/>
      <point x="357.5" y="680.25" type="line"/>
      <point x="374.25" y="900.0" type="line"/>
      <point x="225.75" y="900.0" type="line"/>
      <point x="243.25" y="680.25" type="line"/>
      <point x="63.0" y="692.25" type="line"/>
      <point x="63.0" y="568.5" type="line"/>
      <point x="291.75" y="579.75" type="line"/>
      <point x="243.25" y="663.0" type="line"/>
    </contour>
  </outline>
</glyph>
<glyph name="ellipsis" format="2">
  <advance width="1440.0"/>
  <unicode hex="2026"/>
  <outline>
    <contour>
      <point x="1200.0" y="-18.0" type="curve" smooth="yes"/>
      <point x="1255.75" y="-18.0"/>
      <point x="1297.5" y="24.75"/>
      <point x="1297.5" y="79.5" type="curve" smooth="yes"/>
      <point x="1297.5" y="134.25"/>
      <point x="1255.75" y="177.0"/>
      <point x="1200.0" y="177.0" type="curve" smooth="yes"/>
      <point x="1145.25" y="177.0"/>
      <point x="1102.5" y="134.25"/>
      <point x="1102.5" y="79.5" type="curve" smooth="yes"/>
      <point x="1102.5" y="24.75"/>
      <point x="1145.25" y="-18.0"/>
    </contour>
    <contour>
      <point x="240.0" y="-18.0" type="curve" smooth="yes"/>
      <point x="295.75" y="-18.0"/>
      <point x="337.5" y="24.75"/>
      <point x="337.5" y="79.5" type="curve" smooth="yes"/>
      <point x="337.5" y="134.25"/>
      <point x="295.75" y="177.0"/>
      <point x="240.0" y="177.0" type="curve" smooth="yes"/>
      <point x="185.25" y="177.0"/>
      <point x="142.5" y="134.25"/>
      <point x="142.5" y="79.5" type="curve" smooth="yes"/>
      <point x="142.5" y="24.75"/>
      <point x="185.25" y="-18.0"/>
    </contour>
    <contour>
      <point x="720.0" y="-18.0" type="curve" smooth="yes"/>
      <point x="775.75" y="-18.0"/>
      <point x="817.5" y="24.75"/>
      <point x="817.5" y="79.5" type="curve" smooth="yes"/>
      <point x="817.5" y="134.25"/>
      <point x="775.75" y="177.0"/>
      <point x="720.0" y="177.0" type="curve" smooth="yes"/>
      <point x="665.25" y="177.0"/>
      <point x="622.5" y="134.25"/>
      <point x="622.5" y="79.5" type="curve" smooth="yes"/>
      <point x="622.5" y="24.75"/>
      <point x="665.25" y="-18.0"/>
    </contour>
  </outline>
</glyph>
<glyph name="minute" format="2">
  <advance width="285.0"/>
  <unicode hex="2032"/>
  <outline>
    <contour>
      <point x="15.0" y="547.5" type="line"/>
      <point x="94.5" y="547.5" type="line"/>
      <point x="329.75" y="900.0" type="line"/>
      <point x="136.25" y="900.0" type="line"/>
    </contour>
  </outline>
</glyph>
<glyph name="guilsinglright" format="2">
  <advance width="360.0"/>
  <unicode hex="203A"/>
  <outline>
    <contour>
      <point x="176.25" y="60.0" type="line"/>
      <point x="338.25" y="300.0" type="line"/>
      <point x="176.25" y="540.0" type="line"/>
      <point x="27.75" y="540.0" type="line"/>
      <point x="189.75" y="300.0" type="line"/>
      <point x="27.75" y="60.0" type="line"/>
    </contour>
  </outline>
</glyph>
<glyph name="fraction" format="2">
  <advance width="120.0"/>
  <unicode hex="2044"/>
  <outline>
    <contour>
      <point x="-314.25" y="0.0" type="line"/>
      <point x="-185.25" y="0.0" type="line"/>
      <point x="433.5" y="900.0" type="line"/>
      <point x="304.5" y="900.0" type="line"/>
    </contour>
  </outline>
</glyph>
<glyph name="euro" format="2">
  <advance width="750.0"/>
  <unicode hex="20AC"/>
  <outline>
    <contour>
      <point x="497.5" y="-18.0" type="curve" smooth="yes"/>
      <point x="571.5" y="-18.0"/>
      <point x="643.25" y="10.75"/>
      <point x="699.0" y="63.25" type="curve"/>
      <point x="656.75" y="230.75" type="line"/>
      <point x="623.75" y="172.0"/>
      <point x="568.5" y="124.5"/>
      <point x="502.75" y="124.5" type="curve" smooth="yes"/>
      <point x="382.25" y="124.5"/>
      <point x="322.75" y="262.5"/>
      <point x="322.75" y="450.0" type="curve" smooth="yes"/>
      <point x="322.75" y="637.5"/>
      <point x="382.25" y="775.5"/>
      <point x="502.75" y="775.5" type="curve" smooth="yes"/>
      <point x="568.25" y="775.5"/>
      <point x="623.75" y="727.25"/>
      <point x="656.75" y="669.5" type="curve"/>
      <point x="699.0" y="836.75" type="line"/>
      <point x="643.25" y="889.25"/>
      <point x="571.5" y="918.0"/>
      <point x="497.5" y="918.0" type="curve" smooth="yes"/>
      <point x="295.5" y="918.0"/>
      <point x="168.25" y="716.75"/>
      <point x="168.25" y="450.0" type="curve" smooth="yes"/>
      <point x="168.25" y="183.25"/>
      <point x="295.5" y="-18.0"/>
    </contour>
    <contour>
      <point x="76.5" y="300.0" type="line"/>
      <point x="553.5" y="300.0" type="line"/>
      <point x="553.5" y="402.0" type="line"/>
      <point x="76.5" y="402.0" type="line"/>
    </contour>
    <contour>
      <point x="76.5" y="498.0" type="line"/>
      <point x="553.5" y="498.0" type="line"/>
      <point x="553.5" y="600.0" type="line"/>
      <point x="76.5" y="600.0" type="line"/>
    </contour>
  </outline>
</glyph>
<glyph name="numero" format="2">
  <advance width="1402.5"/>
  <unicode hex="2116"/>
  <outline>
    <contour>
      <point x="819.0" y="-30.0" type="line"/>
      <point x="819.0" y="900.0" type="line"/>
      <point x="666.0" y="900.0" type="line"/>
      <point x="666.0" y="357.75" type="line"/>
      <point x="103.5" y="930.0" type="line"/>
      <point x="103.5" y="0.0" type="line"/>
      <point x="256.5" y="0.0" type="line"/>
      <point x="256.5" y="543.0" type="line"/>
    </contour>
    <contour>
      <point x="1162.5" y="102.0" type="curve" smooth="yes"/>
      <point x="1217.5" y="102.0"/>
      <point x="1260.0" y="144.75"/>
      <point x="1260.0" y="199.5" type="curve" smooth="yes"/>
      <point x="1260.0" y="254.25"/>
      <point x="1217.5" y="297.0"/>
      <point x="1162.5" y="297.0" type="curve" smooth="yes"/>
      <point x="1107.75" y="297.0"/>
      <point x="1065.0" y="254.25"/>
      <point x="1065.0" y="199.5" type="curve" smooth="yes"/>
      <point x="1065.0" y="144.75"/>
      <point x="1107.75" y="102.0"/>
    </contour>
    <contour>
      <point x="1162.5" y="403.5" type="curve" smooth="yes"/>
      <point x="1275.5" y="403.5"/>
      <point x="1366.5" y="491.75"/>
      <point x="1366.5" y="600.0" type="curve" smooth="yes"/>
      <point x="1366.5" y="708.25"/>
      <point x="1275.5" y="796.5"/>
      <point x="1162.5" y="796.5" type="curve" smooth="yes"/>
      <point x="1049.5" y="796.5"/>
      <point x="958.5" y="708.25"/>
      <point x="958.5" y="600.0" type="curve" smooth="yes"/>
      <point x="958.5" y="491.75"/>
      <point x="1049.5" y="403.5"/>
    </contour>
    <contour>
      <point x="1162.5" y="511.5" type="curve" smooth="yes"/>
      <point x="1111.25" y="511.5"/>
      <point x="1071.75" y="551.0"/>
      <point x="1071.75" y="600.0" type="curve" smooth="yes"/>
      <point x="1071.75" y="649.0"/>
      <point x="1111.25" y="688.5"/>
      <point x="1162.5" y="688.5" type="curve" smooth="yes"/>
      <point x="1212.75" y="688.5"/>
      <point x="1253.25" y="649.0"/>
      <point x="1253.25" y="600.0" type="curve" smooth="yes"/>
      <point x="1253.25" y="551.0"/>
      <point x="1212.75" y="511.5"/>
    </contour>
  </outline>
</glyph>
<glyph name="trademark" format="2">
  <advance width="840.0"/>
  <unicode hex="2122"/>
  <outline>
    <contour>
      <point x="388.5" y="540.0" type="line"/>
      <point x="489.0" y="540.0" type="line"/>
      <point x="489.0" y="609.0" type="line" smooth="yes"/>
      <point x="489.0" y="632.75"/>
      <point x="489.0" y="650.0"/>
      <point x="487.25" y="669.5" type="curve"/>
      <point x="496.75" y="654.75"/>
      <point x="506.0" y="643.75"/>
      <point x="516.0" y="631.0" type="curve" smooth="yes"/>
      <point x="586.0" y="546.0" type="line"/>
      <point x="654.75" y="629.75" type="line" smooth="yes"/>
      <point x="665.75" y="643.25"/>
      <point x="674.0" y="654.0"/>
      <point x="682.75" y="667.0" type="curve"/>
      <point x="681.0" y="646.25"/>
      <point x="681.0" y="628.25"/>
      <point x="681.0" y="609.0" type="curve" smooth="yes"/>
      <point x="681.0" y="540.0" type="line"/>
      <point x="787.5" y="540.0" type="line"/>
      <point x="787.5" y="933.0" type="line"/>
      <point x="588.0" y="697.0" type="line"/>
      <point x="388.5" y="930.0" type="line"/>
    </contour>
    <contour>
      <point x="126.75" y="540.0" type="line"/>
      <point x="233.25" y="540.0" type="line"/>
      <point x="233.25" y="804.0" type="line"/>
      <point x="331.5" y="804.0" type="line"/>
      <point x="331.5" y="900.0" type="line"/>
      <point x="28.5" y="900.0" type="line"/>
      <point x="28.5" y="804.0" type="line"/>
      <point x="126.75" y="804.0" type="line"/>
    </contour>
  </outline>
</glyph>
<glyph name="dek" format="2">
  <advance width="750.0"/>
  <unicode hex="218A"/>
  <outline>
    <contour>
      <point x="383.0" y="-18.0" type="curve" smooth="yes"/>
      <point x="544.0" y="-18.0"/>
      <point x="669.25" y="109.0"/>
      <point x="669.25" y="258.5" type="curve" smooth="yes"/>
      <point x="669.25" y="300.5"/>
      <point x="659.0" y="339.5"/>
      <point x="638.0" y="378.0" type="curve"/>
      <point x="456.75" y="378.0" type="line"/>
      <point x="496.25" y="345.0"/>
      <point x="516.25" y="303.75"/>
      <point x="516.25" y="259.25" type="curve" smooth="yes"/>
      <point x="516.25" y="186.75"/>
      <point x="459.25" y="129.0"/>
      <point x="384.0" y="129.0" type="curve" smooth="yes"/>
      <point x="308.75" y="129.0"/>
      <point x="250.75" y="186.75"/>
      <point x="250.75" y="259.25" type="curve" smooth="yes"/>
      <point x="250.75" y="286.75"/>
      <point x="259.5" y="316.0"/>
      <point x="291.0" y="363.0" type="curve" smooth="yes"/>
      <point x="655.75" y="900.0" type="line"/>
      <point x="80.75" y="900.0" type="line"/>
      <point x="80.75" y="753.0" type="line"/>
      <point x="483.0" y="753.0" type="line"/>
      <point x="422.0" y="811.25" type="line"/>
      <point x="163.75" y="444.25" type="line" smooth="yes"/>
      <point x="114.75" y="374.25"/>
      <point x="93.25" y="321.5"/>
      <point x="93.25" y="259.25" type="curve" smooth="yes"/>
      <point x="93.25" y="105.25"/>
      <point x="225.25" y="-18.0"/>
    </contour>
  </outline>
</glyph>
<glyph name="approxequal" format="2">
  <advance width="750.0"/>
  <unicode hex="2248"/>
  <outline>
    <contour>
      <point x="99.75" y="451.5" type="line"/>
      <point x="128.25" y="514.75"/>
      <point x="171.0" y="555.0"/>
      <point x="230.5" y="555.0" type="curve" smooth="yes"/>
      <point x="316.0" y="555.0"/>
      <point x="403.0" y="471.0"/>
      <point x="516.5" y="471.0" type="curve" smooth="yes"/>
      <point x="599.75" y="471.0"/>
      <point x="674.25" y="516.75"/>
      <point x="715.5" y="595.0" type="curve"/>
      <point x="650.25" y="706.5" type="line"/>
      <point x="621.75" y="643.25"/>
      <point x="579.0" y="603.0"/>
      <point x="519.5" y="603.0" type="curve" smooth="yes"/>
      <point x="434.0" y="603.0"/>
      <point x="347.0" y="687.0"/>
      <point x="233.5" y="687.0" type="curve" smooth="yes"/>
      <point x="150.25" y="687.0"/>
      <point x="75.75" y="641.25"/>
      <point x="34.5" y="563.0" type="curve"/>
    </contour>
    <contour>
      <point x="99.75" y="193.5" type="line"/>
      <point x="128.25" y="256.75"/>
      <point x="171.0" y="297.0"/>
      <point x="230.5" y="297.0" type="curve" smooth="yes"/>
      <point x="316.0" y="297.0"/>
      <point x="403.0" y="213.0"/>
      <point x="516.5" y="213.0" type="curve" smooth="yes"/>
      <point x="599.75" y="213.0"/>
      <point x="674.25" y="258.75"/>
      <point x="715.5" y="337.0" type="curve"/>
      <point x="650.25" y="448.5" type="line"/>
      <point x="621.75" y="385.25"/>
      <point x="579.0" y="345.0"/>
      <point x="519.5" y="345.0" type="curve" smooth="yes"/>
      <point x="434.0" y="345.0"/>
      <point x="347.0" y="429.0"/>
      <point x="233.5" y="429.0" type="curve" smooth="yes"/>
      <point x="150.25" y="429.0"/>
      <point x="75.75" y="383.25"/>
      <point x="34.5" y="305.0" type="curve"/>
    </contour>
  </outline>
</glyph>
<glyph name="lessequal" format="2">
  <advance width="750.0"/>
  <unicode hex="2264"/>
  <outline>
    <contour>
      <point x="673.5" y="195.5" type="line"/>
      <point x="673.5" y="337.75" type="line"/>
      <point x="418.5" y="460.0" type="line" smooth="yes"/>
      <point x="381.5" y="478.0"/>
      <point x="338.5" y="495.0"/>
      <point x="297.5" y="511.0" type="curve"/>
      <point x="338.5" y="528.0"/>
      <point x="381.5" y="545.0"/>
      <point x="418.5" y="563.0" type="curve" smooth="yes"/>
      <point x="673.5" y="686.25" type="line"/>
      <point x="673.5" y="826.5" type="line"/>
      <point x="33.0" y="511.5" type="line"/>
    </contour>
    <contour>
      <point x="76.5" y="56.75" type="line"/>
      <point x="673.5" y="56.75" type="line"/>
      <point x="673.5" y="165.25" type="line"/>
      <point x="76.5" y="165.25" type="line"/>
    </contour>
  </outline>
</glyph>
<glyph name="leftanglebracket-math" format="2">
  <advance width="480.0"/>
  <unicode hex="27E8"/>
  <outline>
    <contour>
      <point x="287.25" y="-180.0" type="line"/>
      <point x="444.0" y="-180.0" type="line"/>
      <point x="182.25" y="390.0" type="line"/>
      <point x="444.0" y="960.0" type="line"/>
      <point x="287.25" y="960.0" type="line"/>
      <point x="25.5" y="390.0" type="line"/>
    </contour>
  </outline>
</glyph>
<glyph name="A.ring" format="2">
  <advance width="815.0"/>
  <anchor x="407.5" y="900.0" name="top"/>
  <outline>
    <contour>
      <point x="13.5" y="0.0" type="line"/>
      <point x="173.5" y="0.0" type="line"/>
      <point x="352.0" y="432.0" type="line"/>
      <point x="372.25" y="480.25"/>
      <point x="388.5" y="522.0"/>
      <point x="403.75" y="582.5" type="curve"/>
      <point x="419.75" y="521.25"/>
      <point x="437.0" y="480.0"/>
      <point x="457.25" y="432.0" type="curve"/>
      <point x="635.5" y="0.0" type="line"/>
      <point x="801.5" y="0.0" type="line"/>
      <point x="421.0" y="900.0" type="line"/>
      <point x="394.0" y="900.0" type="line"/>
    </contour>
    <contour>
      <point x="193.75" y="186.75" type="line"/>
      <point x="615.25" y="186.75" type="line"/>
      <point x="567.5" y="318.5" type="line"/>
      <point x="243.25" y="318.5" type="line"/>
    </contour>
  </outline>
</glyph>
<glyph name="a.ss02" format="2">
  <advance width="675.0"/>
  <anchor x="325.5" y="0.0" name="bottom"/>
  <anchor x="548.5" y="0.0" name="ogonek"/>
  <anchor x="334.5" y="600.0" name="top"/>
  <outline>
    <contour>
      <point x="267.5" y="-12.5" type="curve" smooth="yes"/>
      <point x="351.0" y="-12.5"/>
      <point x="425.0" y="18.75"/>
      <point x="476.0" y="77.5" type="curve"/>
      <point x="476.0" y="0.0" type="line"/>
      <point x="613.5" y="0.0" type="line"/>
      <point x="613.5" y="377.0" type="line" smooth="yes"/>
      <point x="613.5" y="522.25"/>
      <point x="496.5" y="617.0"/>
      <point x="325.0" y="617.0" type="curve" smooth="yes"/>
      <point x="237.75" y="617.0"/>
      <point x="152.25" y="592.5"/>
      <point x="85.5" y="551.5" type="curve"/>
      <point x="118.75" y="412.5" type="line"/>
      <point x="166.75" y="459.25"/>
      <point x="238.25" y="489.5"/>
      <point x="311.0" y="489.5" type="curve" smooth="yes"/>
      <point x="411.5" y="489.5"/>
      <point x="476.0" y="431.0"/>
      <point x="476.0" y="357.0" type="curve" smooth="yes"/>
      <point x="476.0" y="345.75" type="line"/>
      <point x="422.0" y="370.0"/>
      <point x="366.0" y="382.5"/>
      <point x="304.25" y="382.5" type="curve" smooth="yes"/>
      <point x="147.75" y="382.5"/>
      <point x="40.5" y="303.75"/>
      <point x="40.5" y="181.75" type="curve" smooth="yes"/>
      <point x="40.5" y="66.75"/>
      <point x="135.0" y="-12.5"/>
    </contour>
    <contour>
      <point x="295.5" y="109.0" type="curve" smooth="yes"/>
      <point x="229.0" y="109.0"/>
      <point x="189.0" y="140.75"/>
      <point x="189.0" y="186.25" type="curve" smooth="yes"/>
      <point x="189.0" y="236.75"/>
      <point x="239.25" y="265.5"/>
      <point x="320.25" y="265.5" type="curve" smooth="yes"/>
      <point x="372.75" y="265.5"/>
      <point x="432.0" y="253.75"/>
      <point x="476.0" y="234.75" type="curve"/>
      <point x="467.75" y="164.0"/>
      <point x="384.0" y="109.0"/>
    </contour>
  </outline>
</glyph>
<glyph name="backslash.titl" format="2">
  <advance width="480.0"/>
  <outline>
    <contour>
      <point x="551.25" y="-180.0" type="line"/>
      <point x="11.25" y="960.0" type="line"/>
      <point x="-71.25" y="960.0" type="line"/>
      <point x="468.75" y="-180.0" type="line"/>
    </contour>
  </outline>
</glyph>
<glyph name="brevecomb_acutecomb" format="2">
  <anchor x="360.0" y="600.0" name="_top"/>
  <outline>
    <contour>
      <point x="360.0" y="666.0" type="curve" smooth="yes"/>
      <point x="471.5" y="666.0"/>
      <point x="558.0" y="747.5"/>
      <point x="558.0" y="858.0" type="curve"/>
      <point x="447.0" y="858.0" type="line"/>
      <point x="447.0" y="809.5"/>
      <point x="406.5" y="771.0"/>
      <point x="360.0" y="771.0" type="curve" smooth="yes"/>
      <point x="313.5" y="771.0"/>
      <point x="273.0" y="809.5"/>
      <point x="273.0" y="858.0" type="curve"/>
      <point x="162.0" y="858.0" type="line"/>
      <point x="162.0" y="749.25"/>
      <point x="249.5" y="666.0"/>
    </contour>
    <contour>
      <point x="290.25" y="879.0" type="line"/>
      <point x="405.75" y="879.0" type="line"/>
      <point x="515.0" y="1029.0" type="line"/>
      <point x="361.0" y="1029.0" type="line"/>
    </contour>
  </outline>
</glyph>
<glyph name="brevecomb_gravecomb" format="2">
  <anchor x="360.0" y="600.0" name="_top"/>
  <outline>
    <contour>
      <point x="360.0" y="666.0" type="curve" smooth="yes"/>
      <point x="471.25" y="666.0"/>
      <point x="558.0" y="747.75"/>
      <point x="558.0" y="858.0" type="curve"/>
      <point x="447.0" y="858.0" type="line"/>
      <point x="447.0" y="809.5"/>
      <point x="406.5" y="771.0"/>
      <point x="360.0" y="771.0" type="curve" smooth="yes"/>
      <point x="313.5" y="771.0"/>
      <point x="273.0" y="809.5"/>
      <point x="273.0" y="858.0" type="curve"/>
      <point x="162.0" y="858.0" type="line"/>
      <point x="162.0" y="749.0"/>
      <point x="249.25" y="666.0"/>
    </contour>
    <contour>
      <point x="314.25" y="879.0" type="line"/>
      <point x="429.75" y="879.0" type="line"/>
      <point x="359.0" y="1029.0" type="line"/>
      <point x="205.0" y="1029.0" type="line"/>
    </contour>
  </outline>
</glyph>
<glyph name="brevecomb_hookabovecomb" format="2">
  <anchor x="360.0" y="600.0" name="_top"/>
  <outline>
    <contour>
      <point x="360.0" y="666.0" type="curve" smooth="yes"/>
      <point x="471.25" y="666.0"/>
      <point x="558.0" y="747.75"/>
      <point x="558.0" y="858.0" type="curve"/>
      <point x="447.0" y="858.0" type="line"/>
      <point x="447.0" y="809.5"/>
      <point x="406.5" y="771.0"/>
      <point x="360.0" y="771.0" type="curve" smooth="yes"/>
      <point x="313.5" y="771.0"/>
      <point x="273.0" y="809.5"/>
      <point x="273.0" y="858.0" type="curve"/>
      <point x="162.0" y="858.0" type="line"/>
      <point x="162.0" y="749.0"/>
      <point x="249.25" y="666.0"/>
    </contour>
    <contour>
      <point x="303.75" y="879.0" type="curve"/>
      <point x="425.25" y="879.0" type="line"/>
      <point x="449.0" y="903.5"/>
      <point x="463.5" y="932.0"/>
      <point x="463.5" y="967.5" type="curve" smooth="yes"/>
      <point x="463.5" y="1038.5"/>
      <point x="399.5" y="1080.0"/>
      <point x="320.25" y="1080.0" type="curve" smooth="yes"/>
      <point x="274.75" y="1080.0"/>
      <point x="230.0" y="1065.75"/>
      <point x="206.75" y="1046.25" type="curve"/>
      <point x="232.5" y="954.0" type="line"/>
      <point x="246.5" y="970.25"/>
      <point x="270.25" y="985.5"/>
      <point x="293.25" y="985.5" type="curve" smooth="yes"/>
      <point x="323.0" y="985.5"/>
      <point x="341.25" y="968.0"/>
      <point x="341.25" y="943.75" type="curve" smooth="yes"/>
      <point x="341.25" y="926.0"/>
      <point x="329.0" y="905.0"/>
    </contour>
  </outline>
</glyph>
<glyph name="brevecomb_tildecomb" format="2">
  <anchor x="360.0" y="600.0" name="_top"/>
  <outline>
    <contour>
      <point x="360.0" y="666.0" type="curve" smooth="yes"/>
      <point x="471.5" y="666.0"/>
      <point x="558.0" y="747.5"/>
      <point x="558.0" y="858.0" type="curve"/>
      <point x="447.0" y="858.0" type="line"/>
      <point x="447.0" y="809.5"/>
      <point x="406.5" y="771.0"/>
      <point x="360.0" y="771.0" type="curve" smooth="yes"/>
      <point x="313.5" y="771.0"/>
      <point x="273.0" y="809.5"/>
      <point x="273.0" y="858.0" type="curve"/>
      <point x="162.0" y="858.0" type="line"/>
      <point x="162.0" y="749.25"/>
      <point x="249.5" y="666.0"/>
    </contour>
    <contour>
      <point x="201.5" y="895.75" type="line"/>
      <point x="217.5" y="936.25"/>
      <point x="244.0" y="959.75"/>
      <point x="281.5" y="959.75" type="curve" smooth="yes"/>
      <point x="332.0" y="959.75"/>
      <point x="378.25" y="913.75"/>
      <point x="439.75" y="913.75" type="curve" smooth="yes"/>
      <point x="487.75" y="913.75"/>
      <point x="530.0" y="940.25"/>
      <point x="553.5" y="986.25" type="curve"/>
      <point x="518.5" y="1085.5" type="line"/>
      <point x="502.5" y="1046.0"/>
      <point x="476.0" y="1023.0"/>
      <point x="438.5" y="1023.0" type="curve" smooth="yes"/>
      <point x="388.0" y="1023.0"/>
      <point x="341.75" y="1069.25"/>
      <point x="280.25" y="1069.25" type="curve" smooth="yes"/>
      <point x="232.25" y="1069.25"/>
      <point x="190.0" y="1043.25"/>
      <point x="166.5" y="996.5" type="curve"/>
    </contour>
  </outline>
</glyph>
<glyph name="circumflexcomb_tildecomb" format="2">
  <anchor x="360.0" y="600.0" name="_top"/>
  <outline>
    <contour>
      <point x="148.5" y="681.0" type="line"/>
      <point x="294.5" y="681.0" type="line"/>
      <point x="318.0" y="702.5"/>
      <point x="335.75" y="723.75"/>
      <point x="358.0" y="751.25" type="curve"/>
      <point x="380.25" y="723.75"/>
      <point x="398.0" y="702.5"/>
      <point x="421.5" y="681.0" type="curve"/>
      <point x="571.5" y="681.0" type="line"/>
      <point x="360.0" y="901.5" type="line"/>
    </contour>
    <contour>
      <point x="201.5" y="895.75" type="line"/>
      <point x="217.5" y="936.25"/>
      <point x="244.0" y="959.75"/>
      <point x="281.5" y="959.75" type="curve" smooth="yes"/>
      <point x="332.0" y="959.75"/>
      <point x="378.25" y="913.75"/>
      <point x="439.75" y="913.75" type="curve" smooth="yes"/>
      <point x="487.75" y="913.75"/>
      <point x="530.0" y="940.25"/>
      <point x="553.5" y="986.25" type="curve"/>
      <point x="518.5" y="1085.5" type="line"/>
      <point x="502.5" y="1046.0"/>
      <point x="476.0" y="1023.0"/>
      <point x="438.5" y="1023.0" type="curve" smooth="yes"/>
      <point x="388.0" y="1023.0"/>
      <point x="341.75" y="1069.25"/>
      <point x="280.25" y="1069.25" type="curve" smooth="yes"/>
      <point x="232.25" y="1069.25"/>
      <point x="190.0" y="1043.25"/>
      <point x="166.5" y="996.5" type="curve"/>
    </contour>
  </outline>
</glyph>
<glyph name="d.croat" format="2">
  <advance width="745.0"/>
  <anchor x="353.0" y="0.0" name="bottom"/>
  <anchor x="597.25" y="780.0" name="center"/>
  <anchor x="353.0" y="600.0" name="top"/>
  <anchor x="671.5" y="960.0" name="topright"/>
  <outline>
    <contour>
      <point x="341.0" y="-14.0" type="curve" smooth="yes"/>
      <point x="446.0" y="-14.0"/>
      <point x="531.0" y="39.75"/>
      <point x="576.5" y="121.25" type="curve"/>
      <point x="534.0" y="150.0" type="line"/>
      <point x="534.0" y="0.0" type="line"/>
      <point x="671.5" y="0.0" type="line"/>
      <point x="671.5" y="960.0" type="line"/>
      <point x="524.5" y="960.0" type="line"/>
      <point x="524.5" y="450.75" type="line"/>
      <point x="576.5" y="479.0" type="line"/>
      <point x="531.25" y="560.0"/>
      <point x="446.0" y="614.0"/>
      <point x="341.0" y="614.0" type="curve" smooth="yes"/>
      <point x="174.5" y="614.0"/>
      <point x="40.5" y="473.0"/>
      <point x="40.5" y="300.0" type="curve" smooth="yes"/>
      <point x="40.5" y="127.0"/>
      <point x="174.5" y="-14.0"/>
    </contour>
    <contour>
      <point x="359.5" y="125.25" type="curve" smooth="yes"/>
      <point x="265.0" y="125.25"/>
      <point x="189.0" y="203.5"/>
      <point x="189.0" y="300.0" type="curve" smooth="yes"/>
      <point x="189.0" y="396.5"/>
      <point x="265.0" y="474.75"/>
      <point x="359.5" y="474.75" type="curve" smooth="yes"/>
      <point x="454.0" y="474.75"/>
      <point x="530.0" y="396.5"/>
      <point x="530.0" y="300.0" type="curve" smooth="yes"/>
      <point x="530.0" y="203.5"/>
      <point x="454.0" y="125.25"/>
    </contour>
  </outline>
</glyph>
<glyph name="dek.lf" format="2">
  <advance width="690.0"/>
  <outline>
    <contour>
      <point x="353.0" y="-18.0" type="curve" smooth="yes"/>
      <point x="514.0" y="-18.0"/>
      <point x="639.25" y="109.0"/>
      <point x="639.25" y="258.5" type="curve" smooth="yes"/>
      <point x="639.25" y="300.5"/>
      <point x="629.0" y="339.5"/>
      <point x="608.0" y="378.0" type="curve"/>
      <point x="426.75" y="378.0" type="line"/>
      <point x="466.25" y="345.0"/>
      <point x="486.25" y="303.75"/>
      <point x="486.25" y="259.25" type="curve" smooth="yes"/>
      <point x="486.25" y="186.75"/>
      <point x="429.25" y="129.0"/>
      <point x="354.0" y="129.0" type="curve" smooth="yes"/>
      <point x="278.75" y="129.0"/>
      <point x="220.75" y="186.75"/>
      <point x="220.75" y="259.25" type="curve" smooth="yes"/>
      <point x="220.75" y="286.75"/>
      <point x="229.5" y="316.0"/>
      <point x="261.0" y="363.0" type="curve" smooth="yes"/>
      <point x="625.75" y="900.0" type="line"/>
      <point x="50.75" y="900.0" type="line"/>
      <point x="50.75" y="753.0" type="line"/>
      <point x="453.0" y="753.0" type="line"/>
      <point x="392.0" y="811.25" type="line"/>
      <point x="133.75" y="444.25" type="line" smooth="yes"/>
      <point x="84.75" y="374.25"/>
      <point x="63.25" y="321.5"/>
      <point x="63.25" y="259.25" type="curve" smooth="yes"/>
      <point x="63.25" y="105.25"/>
      <point x="195.25" y="-18.0"/>
    </contour>
  </outline>
</glyph>
<glyph name="dieresiscomb.Odieresis.case" format="2">
  <anchor x="510.0" y="900.0" name="_top"/>
  <outline>
    <contour>
      <point x="789.0" y="909.0" type="curve" smooth="yes"/>
      <point x="840.5" y="909.0"/>
      <point x="879.0" y="947.5"/>
      <point x="879.0" y="999.0" type="curve" smooth="yes"/>
      <point x="879.0" y="1050.5"/>
      <point x="840.5" y="1089.0"/>
      <point x="789.0" y="1089.0" type="curve" smooth="yes"/>
      <point x="737.5" y="1089.0"/>
      <point x="699.0" y="1050.5"/>
      <point x="699.0" y="999.0" type="curve" smooth="yes"/>
      <point x="699.0" y="947.5"/>
      <point x="737.5" y="909.0"/>
    </contour>
    <contour>
      <point x="231.0" y="909.0" type="curve" smooth="yes"/>
      <point x="282.5" y="909.0"/>
      <point x="321.0" y="947.5"/>
      <point x="321.0" y="999.0" type="curve" smooth="yes"/>
      <point x="321.0" y="1050.5"/>
      <point x="282.5" y="1089.0"/>
      <point x="231.0" y="1089.0" type="curve" smooth="yes"/>
      <point x="179.5" y="1089.0"/>
      <point x="141.0" y="1050.5"/>
      <point x="141.0" y="999.0" type="curve" smooth="yes"/>
      <point x="141.0" y="947.5"/>
      <point x="179.5" y="909.0"/>
    </contour>
  </outline>
</glyph>
<glyph name="dollar.BRACKET.150" format="2">
  <advance width="750.0"/>
  <outline>
    <contour>
      <point x="339.0" y="-120.0" type="line"/>
      <point x="441.0" y="-120.0" type="line"/>
      <point x="441.0" y="990.0" type="line"/>
      <point x="339.0" y="990.0" type="line"/>
    </contour>
    <contour>
      <point x="373.25" y="-18.0" type="curve" smooth="yes"/>
      <point x="549.25" y="-18.0"/>
      <point x="663.75" y="99.75"/>
      <point x="663.75" y="255.25" type="curve" smooth="yes"/>
      <point x="663.75" y="414.25"/>
      <point x="543.5" y="482.0"/>
      <point x="476.75" y="515.0" type="curve" smooth="yes"/>
      <point x="368.5" y="568.75" type="line" smooth="yes"/>
      <point x="319.75" y="592.75"/>
      <point x="277.75" y="621.75"/>
      <point x="277.75" y="677.0" type="curve" smooth="yes"/>
      <point x="277.75" y="731.0"/>
      <point x="317.75" y="773.0"/>
      <point x="387.25" y="773.0" type="curve" smooth="yes"/>
      <point x="462.5" y="773.0"/>
      <point x="539.25" y="723.5"/>
      <point x="588.0" y="657.75" type="curve"/>
      <point x="630.75" y="838.5" type="line"/>
      <point x="581.5" y="876.75"/>
      <point x="498.0" y="918.0"/>
      <point x="394.5" y="918.0" type="curve" smooth="yes"/>
      <point x="229.5" y="918.0"/>
      <point x="122.25" y="816.25"/>
      <point x="122.25" y="669.0" type="curve" smooth="yes"/>
      <point x="122.25" y="529.75"/>
      <point x="216.75" y="468.0"/>
      <point x="299.75" y="426.75" type="curve" smooth="yes"/>
      <point x="406.75" y="373.0" type="line" smooth="yes"/>
      <point x="440.75" y="356.0"/>
      <point x="508.25" y="320.75"/>
      <point x="508.25" y="245.25" type="curve" smooth="yes"/>
      <point x="508.25" y="179.75"/>
      <point x="457.25" y="129.0"/>
      <point x="378.75" y="129.0" type="curve" smooth="yes"/>
      <point x="286.0" y="129.0"/>
      <point x="196.25" y="191.75"/>
      <point x="151.75" y="272.0" type="curve"/>
      <point x="106.75" y="87.5" type="line"/>
      <point x="163.75" y="28.75"/>
      <point x="264.0" y="-18.0"/>
    </contour>
  </outline>
</glyph>
<glyph name="dotaccentcomb.case" format="2">
  <anchor x="360.0" y="900.0" name="_top"/>
  <outline>
    <contour>
      <point x="360.0" y="990.0" type="curve" smooth="yes"/>
      <point x="410.75" y="990.0"/>
      <point x="450.0" y="1030.25"/>
      <point x="450.0" y="1080.0" type="curve" smooth="yes"/>
      <point x="450.0" y="1130.75"/>
      <point x="410.75" y="1170.0"/>
      <point x="360.0" y="1170.0" type="curve" smooth="yes"/>
      <point x="310.25" y="1170.0"/>
      <point x="270.0" y="1130.75"/>
      <point x="270.0" y="1080.0" type="curve" smooth="yes"/>
      <point x="270.0" y="1030.25"/>
      <point x="310.25" y="990.0"/>
    </contour>
  </outline>
</glyph>
<glyph name="eight.numr" format="2">
  <advance width="480.0"/>
  <outline>
    <contour>
      <point x="240.0" y="403.5" type="curve" smooth="yes"/>
      <point x="345.5" y="403.5"/>
      <point x="434.5" y="466.75"/>
      <point x="434.5" y="569.5" type="curve" smooth="yes"/>
      <point x="434.5" y="643.5"/>
      <point x="387.0" y="702.0"/>
      <point x="321.25" y="724.0" type="curve"/>
      <point x="342.0" y="682.5" type="line"/>
      <point x="372.25" y="701.25"/>
      <point x="396.0" y="736.0"/>
      <point x="396.0" y="779.5" type="curve" smooth="yes"/>
      <point x="396.0" y="866.75"/>
      <point x="332.5" y="916.5"/>
      <point x="240.0" y="916.5" type="curve" smooth="yes"/>
      <point x="147.5" y="916.5"/>
      <point x="84.0" y="856.25"/>
      <point x="84.0" y="779.5" type="curve" smooth="yes"/>
      <point x="84.0" y="736.0"/>
      <point x="106.75" y="701.25"/>
      <point x="138.0" y="682.5" type="curve"/>
      <point x="158.75" y="724.0" type="line"/>
      <point x="93.0" y="702.0"/>
      <point x="45.5" y="643.5"/>
      <point x="45.5" y="569.5" type="curve" smooth="yes"/>
      <point x="45.5" y="467.0"/>
      <point x="140.5" y="403.5"/>
    </contour>
    <contour>
      <point x="240.0" y="504.5" type="curve" smooth="yes"/>
      <point x="196.25" y="504.5"/>
      <point x="163.5" y="537.25"/>
      <point x="163.5" y="581.0" type="curve" smooth="yes"/>
      <point x="163.5" y="624.75"/>
      <point x="196.25" y="657.5"/>
      <point x="240.0" y="657.5" type="curve" smooth="yes"/>
      <point x="283.75" y="657.5"/>
      <point x="316.5" y="624.75"/>
      <point x="316.5" y="581.0" type="curve" smooth="yes"/>
      <point x="316.5" y="537.25"/>
      <point x="283.75" y="504.5"/>
    </contour>
    <contour>
      <point x="240.0" y="723.0" type="curve" smooth="yes"/>
      <point x="211.5" y="723.0"/>
      <point x="188.25" y="746.25"/>
      <point x="188.25" y="774.75" type="curve" smooth="yes"/>
      <point x="188.25" y="803.25"/>
      <point x="211.5" y="826.5"/>
      <point x="240.0" y="826.5" type="curve" smooth="yes"/>
      <point x="268.5" y="826.5"/>
      <point x="291.75" y="803.25"/>
      <point x="291.75" y="774.75" type="curve" smooth="yes"/>
      <point x="291.75" y="746.25"/>
      <point x="268.5" y="723.0"/>
    </contour>
  </outline>
</glyph>
<glyph name="el.lf" format="2">
  <advance width="690.0"/>
  <outline>
    <contour>
      <point x="92.25" y="0.0" type="line"/>
      <point x="639.25" y="0.0" type="line"/>
      <point x="639.25" y="142.5" type="line"/>
      <point x="271.25" y="142.5" type="line"/>
      <point x="302.75" y="96.75" type="line"/>
      <point x="499.5" y="477.5" type="line"/>
      <point x="467.25" y="462.25"/>
      <point x="437.0" y="455.75"/>
      <point x="401.0" y="455.75" type="curve" smooth="yes"/>
      <point x="309.0" y="455.75"/>
      <point x="242.5" y="526.0"/>
      <point x="242.5" y="613.75" type="curve" smooth="yes"/>
      <point x="242.5" y="703.0"/>
      <point x="312.75" y="772.5"/>
      <point x="402.5" y="772.5" type="curve" smooth="yes"/>
      <point x="488.75" y="772.5"/>
      <point x="555.5" y="708.0"/>
      <point x="575.25" y="626.25" type="curve"/>
      <point x="658.5" y="789.25" type="line"/>
      <point x="603.25" y="867.5"/>
      <point x="509.25" y="918.0"/>
      <point x="403.25" y="918.0" type="curve" smooth="yes"/>
      <point x="232.5" y="918.0"/>
      <point x="88.0" y="783.5"/>
      <point x="88.0" y="613.5" type="curve" smooth="yes"/>
      <point x="88.0" y="470.5"/>
      <point x="189.5" y="357.25"/>
      <point x="318.5" y="331.0" type="curve"/>
      <point x="304.0" y="395.25" type="line"/>
    </contour>
  </outline>
</glyph>
<glyph name="el.numr" format="2">
  <advance width="480.0"/>
  <outline>
    <contour>
      <point x="60.75" y="420.0" type="line"/>
      <point x="429.75" y="420.0" type="line"/>
      <point x="429.75" y="525.5" type="line"/>
      <point x="242.25" y="525.5" type="line"/>
      <point x="336.75" y="688.25" type="line"/>
      <point x="318.0" y="678.75"/>
      <point x="298.25" y="671.75"/>
      <point x="275.0" y="671.75" type="curve" smooth="yes"/>
      <point x="223.25" y="671.75"/>
      <point x="199.25" y="706.0"/>
      <point x="199.25" y="741.5" type="curve" smooth="yes"/>
      <point x="199.25" y="782.5"/>
      <point x="228.25" y="811.0"/>
      <point x="274.5" y="811.0" type="curve" smooth="yes"/>
      <point x="321.5" y="811.0"/>
      <point x="354.25" y="777.25"/>
      <point x="366.75" y="740.75" type="curve"/>
      <point x="428.25" y="846.0" type="line"/>
      <point x="397.0" y="886.25"/>
      <point x="340.0" y="916.5"/>
      <point x="271.75" y="916.5" type="curve" smooth="yes"/>
      <point x="163.0" y="916.5"/>
      <point x="78.0" y="843.25"/>
      <point x="78.0" y="745.0" type="curve" smooth="yes"/>
      <point x="78.0" y="669.25"/>
      <point x="127.5" y="607.0"/>
      <point x="205.5" y="586.75" type="curve"/>
      <point x="191.0" y="644.0" type="line"/>
    </contour>
  </outline>
</glyph>
<glyph name="endash.titl" format="2">
  <advance width="720.0"/>
  <outline>
    <contour>
      <point x="60.0" y="266.25" type="line"/>
      <point x="660.0" y="266.25" type="line"/>
      <point x="660.0" y="333.75" type="line"/>
      <point x="60.0" y="333.75" type="line"/>
    </contour>
  </outline>
</glyph>
<glyph name="five.lf" format="2">
  <advance width="690.0"/>
  <outline>
    <contour>
      <point x="298.5" y="-18.0" type="curve" smooth="yes"/>
      <point x="476.25" y="-18.0"/>
      <point x="623.5" y="119.5"/>
      <point x="623.5" y="298.25" type="curve" smooth="yes"/>
      <point x="623.5" y="474.5"/>
      <point x="482.25" y="602.5"/>
      <point x="322.75" y="602.5" type="curve" smooth="yes"/>
      <point x="303.25" y="602.5"/>
      <point x="284.75" y="600.75"/>
      <point x="267.5" y="594.75" type="curve"/>
      <point x="267.5" y="757.5" type="line"/>
      <point x="557.5" y="757.5" type="line"/>
      <point x="557.5" y="900.0" type="line"/>
      <point x="135.0" y="900.0" type="line"/>
      <point x="135.0" y="395.75" type="line"/>
      <point x="173.5" y="439.0"/>
      <point x="229.25" y="467.5"/>
      <point x="291.0" y="467.5" type="curve" smooth="yes"/>
      <point x="388.5" y="467.5"/>
      <point x="469.0" y="398.75"/>
      <point x="469.0" y="299.75" type="curve" smooth="yes"/>
      <point x="469.0" y="202.75"/>
      <point x="391.5" y="129.0"/>
      <point x="297.0" y="129.0" type="curve" smooth="yes"/>
      <point x="202.75" y="129.0"/>
      <point x="128.0" y="199.75"/>
      <point x="108.75" y="288.5" type="curve"/>
      <point x="24.0" y="121.5" type="line"/>
      <point x="81.25" y="37.5"/>
      <point x="182.75" y="-18.0"/>
    </contour>
  </outline>
</glyph>
<glyph name="five.numr" format="2">
  <advance width="480.0"/>
  <outline>
    <contour>
      <point x="211.75" y="403.5" type="curve" smooth="yes"/>
      <point x="324.75" y="403.5"/>
      <point x="411.0" y="481.0"/>
      <point x="411.0" y="584.0" type="curve" smooth="yes"/>
      <point x="411.0" y="673.25"/>
      <point x="346.75" y="747.0"/>
      <point x="242.5" y="747.0" type="curve" smooth="yes"/>
      <point x="211.75" y="747.0"/>
      <point x="189.75" y="740.75"/>
      <point x="171.5" y="728.25" type="curve"/>
      <point x="219.0" y="692.0" type="line"/>
      <point x="219.0" y="799.0" type="line"/>
      <point x="383.25" y="799.0" type="line"/>
      <point x="383.25" y="900.0" type="line"/>
      <point x="116.0" y="900.0" type="line"/>
      <point x="116.0" y="622.5" type="line"/>
      <point x="140.0" y="646.5"/>
      <point x="168.75" y="660.75"/>
      <point x="206.0" y="660.75" type="curve" smooth="yes"/>
      <point x="258.75" y="660.75"/>
      <point x="290.5" y="628.0"/>
      <point x="290.5" y="587.0" type="curve" smooth="yes"/>
      <point x="290.5" y="545.25"/>
      <point x="257.75" y="513.5"/>
      <point x="206.0" y="513.5" type="curve" smooth="yes"/>
      <point x="154.0" y="513.5"/>
      <point x="118.0" y="549.0"/>
      <point x="107.75" y="589.0" type="curve"/>
      <point x="47.0" y="477.75" type="line"/>
      <point x="79.5" y="435.25"/>
      <point x="140.0" y="403.5"/>
    </contour>
  </outline>
</glyph>
<glyph name="four.numr" format="2">
  <advance width="480.0"/>
  <outline>
    <contour>
      <point x="272.0" y="420.0" type="line"/>
      <point x="383.0" y="420.0" type="line"/>
      <point x="383.0" y="525.0" type="line"/>
      <point x="444.0" y="525.0" type="line"/>
      <point x="444.0" y="623.0" type="line"/>
      <point x="382.5" y="623.0" type="line"/>
      <point x="382.5" y="763.0" type="line"/>
      <point x="277.0" y="704.75" type="line"/>
      <point x="277.0" y="618.5" type="line"/>
      <point x="114.0" y="618.5" type="line"/>
      <point x="157.0" y="578.0" type="line"/>
      <point x="328.5" y="900.0" type="line"/>
      <point x="202.0" y="900.0" type="line"/>
      <point x="6.0" y="525.0" type="line"/>
      <point x="272.0" y="525.0" type="line"/>
    </contour>
  </outline>
</glyph>
<glyph name="hookabovecomb.case" format="2">
  <anchor x="360.0" y="900.0" name="_top"/>
  <outline>
    <contour>
      <point x="309.0" y="981.0" type="curve"/>
      <point x="442.5" y="981.0" type="line"/>
      <point x="468.5" y="1011.75"/>
      <point x="493.5" y="1052.25"/>
      <point x="493.5" y="1103.25" type="curve" smooth="yes"/>
      <point x="493.5" y="1184.0"/>
      <point x="426.75" y="1233.0"/>
      <point x="337.25" y="1233.0" type="curve" smooth="yes"/>
      <point x="282.25" y="1233.0"/>
      <point x="231.0" y="1215.5"/>
      <point x="205.75" y="1193.5" type="curve"/>
      <point x="236.75" y="1073.25" type="line"/>
      <point x="251.75" y="1092.25"/>
      <point x="276.5" y="1110.75"/>
      <point x="306.0" y="1110.75" type="curve" smooth="yes"/>
      <point x="337.75" y="1110.75"/>
      <point x="356.5" y="1092.25"/>
      <point x="356.5" y="1066.5" type="curve" smooth="yes"/>
      <point x="356.5" y="1043.75"/>
      <point x="339.75" y="1016.0"/>
    </contour>
  </outline>
</glyph>
<glyph name="macroncomb.narrow" format="2">
  <anchor x="360.0" y="600.0" name="_top"/>
  <outline>
    <contour>
      <point x="208.5" y="724.5" type="line"/>
      <point x="511.5" y="724.5" type="line"/>
      <point x="511.5" y="835.5" type="line"/>
      <point x="208.5" y="835.5" type="line"/>
    </contour>
  </outline>
</glyph>
<glyph name="o.slash" format="2">
  <advance width="725.0"/>
  <anchor x="362.5" y="0.0" name="bottom"/>
  <anchor x="362.5" y="300.0" name="center"/>
  <anchor x="459.25" y="2.5" name="ogonek"/>
  <anchor x="362.5" y="600.0" name="top"/>
  <anchor x="591.75" y="600.0" name="topright"/>
  <outline>
    <contour>
      <point x="362.5" y="-18.0" type="curve" smooth="yes"/>
      <point x="540.5" y="-18.0"/>
      <point x="684.5" y="124.0"/>
      <point x="684.5" y="300.0" type="curve" smooth="yes"/>
      <point x="684.5" y="476.0"/>
      <point x="540.5" y="618.0"/>
      <point x="362.5" y="618.0" type="curve" smooth="yes"/>
      <point x="184.5" y="618.0"/>
      <point x="40.5" y="476.0"/>
      <point x="40.5" y="300.0" type="curve" smooth="yes"/>
      <point x="40.5" y="124.0"/>
      <point x="184.5" y="-18.0"/>
    </contour>
    <contour>
      <point x="362.5" y="118.5" type="curve" smooth="yes"/>
      <point x="263.0" y="118.5"/>
      <point x="183.75" y="199.75"/>
      <point x="183.75" y="300.0" type="curve" smooth="yes"/>
      <point x="183.75" y="400.25"/>
      <point x="263.0" y="481.5"/>
      <point x="362.5" y="481.5" type="curve" smooth="yes"/>
      <point x="461.0" y="481.5"/>
      <point x="541.25" y="400.25"/>
      <point x="541.25" y="300.0" type="curve" smooth="yes"/>
      <point x="541.25" y="199.75"/>
      <point x="461.0" y="118.5"/>
    </contour>
  </outline>
</glyph>
<glyph name="one.numr" format="2">
  <advance width="480.0"/>
  <outline>
    <contour>
      <point x="235.75" y="752.0" type="line"/>
      <point x="214.5" y="764.75" type="line"/>
      <point x="214.5" y="420.0" type="line"/>
      <point x="340.5" y="420.0" type="line"/>
      <point x="340.5" y="929.0" type="line"/>
      <point x="100.5" y="809.0" type="line"/>
      <point x="100.5" y="684.5" type="line"/>
    </contour>
  </outline>
</glyph>
<glyph name="parenright.titl" format="2">
  <advance width="480.0"/>
  <outline>
    <contour>
      <point x="109.5" y="-180.0" type="curve"/>
      <point x="194.0" y="-180.0" type="line"/>
      <point x="295.0" y="-13.0"/>
      <point x="354.0" y="182.0"/>
      <point x="354.0" y="390.0" type="curve" smooth="yes"/>
      <point x="354.0" y="598.0"/>
      <point x="295.0" y="793.0"/>
      <point x="194.0" y="960.0" type="curve"/>
      <point x="109.5" y="960.0" type="line"/>
      <point x="219.25" y="799.0"/>
      <point x="280.25" y="604.0"/>
      <point x="280.25" y="390.0" type="curve" smooth="yes"/>
      <point x="280.25" y="176.0"/>
      <point x="219.25" y="-19.0"/>
    </contour>
  </outline>
</glyph>
<glyph name="periodcentered.loclCAT.case" format="2">
  <advance width="360.0"/>
  <anchor x="180.0" y="450.0" name="_periodcentered"/>
  <outline>
    <contour>
      <point x="180.0" y="362.25" type="curve" smooth="yes"/>
      <point x="230.0" y="362.25"/>
      <point x="267.75" y="401.0"/>
      <point x="267.75" y="450.0" type="curve" smooth="yes"/>
      <point x="267.75" y="500.0"/>
      <point x="230.0" y="537.75"/>
      <point x="180.0" y="537.75" type="curve" smooth="yes"/>
      <point x="131.0" y="537.75"/>
      <point x="92.25" y="500.0"/>
      <point x="92.25" y="450.0" type="curve" smooth="yes"/>
      <point x="92.25" y="401.0"/>
      <point x="131.0" y="362.25"/>
    </contour>
  </outline>
</glyph>
<glyph name="seven.lf" format="2">
  <advance width="690.0"/>
  <outline>
    <contour>
      <point x="61.25" y="0.0" type="line"/>
      <point x="240.25" y="0.0" type="line"/>
      <point x="668.75" y="900.0" type="line"/>
      <point x="44.25" y="900.0" type="line"/>
      <point x="44.25" y="753.0" type="line"/>
      <point x="506.25" y="753.0" type="line"/>
      <point x="458.75" y="825.0" type="line"/>
    </contour>
  </outline>
</glyph>
<glyph name="seven.numr" format="2">
  <advance width="480.0"/>
  <outline>
    <contour>
      <point x="79.5" y="420.0" type="line"/>
      <point x="211.5" y="420.0" type="line"/>
      <point x="448.5" y="900.0" type="line"/>
      <point x="72.5" y="900.0" type="line"/>
      <point x="72.5" y="790.0" type="line"/>
      <point x="331.0" y="790.0" type="line"/>
      <point x="298.0" y="860.0" type="line"/>
    </contour>
  </outline>
</glyph>
<glyph name="six.lf" format="2">
  <advance width="750.0"/>
  <outline>
    <contour>
      <point x="379.5" y="-18.0" type="curve" smooth="yes"/>
      <point x="560.75" y="-18.0"/>
      <point x="703.5" y="118.75"/>
      <point x="703.5" y="295.5" type="curve" smooth="yes"/>
      <point x="703.5" y="468.25"/>
      <point x="565.75" y="603.0"/>
      <point x="397.25" y="603.0" type="curve" smooth="yes"/>
      <point x="349.75" y="603.0"/>
      <point x="303.25" y="592.0"/>
      <point x="260.5" y="551.25" type="curve"/>
      <point x="304.5" y="536.0" type="line"/>
      <point x="502.5" y="900.0" type="line"/>
      <point x="333.5" y="900.0" type="line"/>
      <point x="96.25" y="449.0" type="line" smooth="yes"/>
      <point x="70.25" y="399.0"/>
      <point x="55.5" y="348.75"/>
      <point x="55.5" y="293.75" type="curve" smooth="yes"/>
      <point x="55.5" y="118.75"/>
      <point x="198.25" y="-18.0"/>
    </contour>
    <contour>
      <point x="379.75" y="129.0" type="curve" smooth="yes"/>
      <point x="285.0" y="129.0"/>
      <point x="210.5" y="205.25"/>
      <point x="210.5" y="298.0" type="curve" smooth="yes"/>
      <point x="210.5" y="390.5"/>
      <point x="285.0" y="467.0"/>
      <point x="379.75" y="467.0" type="curve" smooth="yes"/>
      <point x="475.5" y="467.0"/>
      <point x="549.0" y="390.5"/>
      <point x="549.0" y="298.0" type="curve" smooth="yes"/>
      <point x="549.0" y="205.25"/>
      <point x="474.5" y="129.0"/>
    </contour>
  </outline>
</glyph>
<glyph name="strokeshortcomb.h" format="2">
  <anchor x="200.0" y="300.0" name="_center"/>
  <outline>
    <contour>
      <point x="66.5" y="251.0" type="line"/>
      <point x="473.5" y="251.0" type="line"/>
      <point x="473.5" y="349.0" type="line"/>
      <point x="66.5" y="349.0" type="line"/>
    </contour>
  </outline>
</glyph>
<glyph name="strokeshortcomb.t" format="2">
  <anchor x="270.0" y="300.0" name="_center"/>
  <outline>
    <contour>
      <point x="80.0" y="251.0" type="line"/>
      <point x="460.0" y="251.0" type="line"/>
      <point x="460.0" y="349.0" type="line"/>
      <point x="80.0" y="349.0" type="line"/>
    </contour>
  </outline>
</glyph>
<glyph name="t_t" format="2">
  <advance width="855.0"/>
  <outline>
    <contour>
      <point x="546.25" y="0.0" type="line"/>
      <point x="703.75" y="0.0" type="line"/>
      <point x="703.75" y="549.0" type="line"/>
      <point x="700.75" y="549.0" type="line"/>
      <point x="700.75" y="800.0" type="line"/>
      <point x="549.25" y="800.0" type="line"/>
      <point x="549.25" y="550.0" type="line"/>
      <point x="546.25" y="550.0" type="line"/>
    </contour>
    <contour>
      <point x="141.25" y="0.0" type="line"/>
      <point x="298.75" y="0.0" type="line"/>
      <point x="298.75" y="549.0" type="line"/>
      <point x="295.75" y="549.0" type="line"/>
      <point x="295.75" y="800.0" type="line"/>
      <point x="144.25" y="800.0" type="line"/>
      <point x="144.25" y="550.0" type="line"/>
      <point x="141.25" y="550.0" type="line"/>
    </contour>
    <contour>
      <point x="25.5" y="474.0" type="line"/>
      <point x="829.5" y="474.0" type="line"/>
      <point x="829.5" y="600.0" type="line"/>
      <point x="25.5" y="600.0" type="line"/>
    </contour>
  </outline>
</glyph>
<glyph name="three.numr" format="2">
  <advance width="480.0"/>
  <outline>
    <contour>
      <point x="210.75" y="403.5" type="curve" smooth="yes"/>
      <point x="324.75" y="403.5"/>
      <point x="411.0" y="480.0"/>
      <point x="411.0" y="583.5" type="curve" smooth="yes"/>
      <point x="411.0" y="662.5"/>
      <point x="358.75" y="728.0"/>
      <point x="277.5" y="749.0" type="curve"/>
      <point x="277.5" y="689.25" type="line"/>
      <point x="395.25" y="900.0" type="line"/>
      <point x="70.75" y="900.0" type="line"/>
      <point x="70.75" y="794.5" type="line"/>
      <point x="217.5" y="794.5" type="line"/>
      <point x="136.5" y="643.5" type="line"/>
      <point x="156.25" y="653.5"/>
      <point x="179.5" y="662.0"/>
      <point x="206.5" y="662.0" type="curve" smooth="yes"/>
      <point x="264.25" y="662.0"/>
      <point x="290.5" y="625.75"/>
      <point x="290.5" y="587.75" type="curve" smooth="yes"/>
      <point x="290.5" y="544.5"/>
      <point x="256.25" y="513.5"/>
      <point x="206.5" y="513.5" type="curve" smooth="yes"/>
      <point x="153.5" y="513.5"/>
      <point x="118.0" y="549.0"/>
      <point x="107.75" y="589.0" type="curve"/>
      <point x="47.0" y="477.75" type="line"/>
      <point x="79.5" y="435.25"/>
      <point x="140.0" y="403.5"/>
    </contour>
  </outline>
</glyph>
<glyph name="tildecomb_macroncomb" format="2">
  <anchor x="360.0" y="600.0" name="_top"/>
  <outline>
    <contour>
      <point x="197.0" y="688.25" type="line"/>
      <point x="213.5" y="729.75"/>
      <point x="240.75" y="754.0"/>
      <point x="279.5" y="754.0" type="curve" smooth="yes"/>
      <point x="331.25" y="754.0"/>
      <point x="379.0" y="706.75"/>
      <point x="442.0" y="706.75" type="curve" smooth="yes"/>
      <point x="491.5" y="706.75"/>
      <point x="534.75" y="734.0"/>
      <point x="558.75" y="781.25" type="curve"/>
      <point x="523.0" y="882.75" type="line"/>
      <point x="506.5" y="842.0"/>
      <point x="479.25" y="818.25"/>
      <point x="440.75" y="818.25" type="curve" smooth="yes"/>
      <point x="388.75" y="818.25"/>
      <point x="341.25" y="865.75"/>
      <point x="278.0" y="865.75" type="curve" smooth="yes"/>
      <point x="228.75" y="865.75"/>
      <point x="185.5" y="839.25"/>
      <point x="161.25" y="791.25" type="curve"/>
    </contour>
    <contour>
      <point x="180.0" y="933.75" type="line"/>
      <point x="540.0" y="933.75" type="line"/>
      <point x="540.0" y="1043.25" type="line"/>
      <point x="180.0" y="1043.25" type="line"/>
    </contour>
  </outline>
</glyph>
<glyph name="two.lf" format="2">
  <advance width="690.0"/>
  <outline>
    <contour>
      <point x="64.25" y="0.0" type="line"/>
      <point x="639.25" y="0.0" type="line"/>
      <point x="639.25" y="147.0" type="line"/>
      <point x="237.0" y="147.0" type="line"/>
      <point x="298.0" y="88.75" type="line"/>
      <point x="556.25" y="455.75" type="line" smooth="yes"/>
      <point x="605.25" y="525.75"/>
      <point x="626.75" y="578.5"/>
      <point x="626.75" y="640.75" type="curve" smooth="yes"/>
      <point x="626.75" y="794.75"/>
      <point x="494.75" y="918.0"/>
      <point x="337.0" y="918.0" type="curve" smooth="yes"/>
      <point x="176.0" y="918.0"/>
      <point x="50.75" y="791.0"/>
      <point x="50.75" y="641.5" type="curve" smooth="yes"/>
      <point x="50.75" y="599.5"/>
      <point x="61.0" y="560.5"/>
      <point x="82.0" y="522.0" type="curve"/>
      <point x="263.25" y="522.0" type="line"/>
      <point x="223.75" y="555.0"/>
      <point x="203.75" y="596.25"/>
      <point x="203.75" y="640.75" type="curve" smooth="yes"/>
      <point x="203.75" y="713.25"/>
      <point x="260.75" y="771.0"/>
      <point x="336.0" y="771.0" type="curve" smooth="yes"/>
      <point x="411.25" y="771.0"/>
      <point x="469.25" y="713.25"/>
      <point x="469.25" y="640.75" type="curve" smooth="yes"/>
      <point x="469.25" y="613.25"/>
      <point x="460.5" y="584.0"/>
      <point x="429.0" y="537.0" type="curve" smooth="yes"/>
    </contour>
  </outline>
</glyph>
<glyph name="two.numr" format="2">
  <advance width="480.0"/>
  <outline>
    <contour>
      <point x="51.25" y="420.0" type="line"/>
      <point x="429.75" y="420.0" type="line"/>
      <point x="429.75" y="525.5" type="line"/>
      <point x="324.75" y="525.5" type="line"/>
      <point x="282.0" y="525.5"/>
      <point x="244.5" y="523.25"/>
      <point x="206.25" y="519.5" type="curve"/>
      <point x="220.25" y="492.75" type="line"/>
      <point x="272.25" y="534.5"/>
      <point x="312.0" y="575.75"/>
      <point x="346.0" y="617.5" type="curve" smooth="yes"/>
      <point x="388.75" y="669.0"/>
      <point x="407.0" y="707.25"/>
      <point x="407.0" y="750.0" type="curve" smooth="yes"/>
      <point x="407.0" y="841.75"/>
      <point x="330.5" y="916.5"/>
      <point x="228.5" y="916.5" type="curve" smooth="yes"/>
      <point x="127.0" y="916.5"/>
      <point x="50.25" y="844.5"/>
      <point x="50.25" y="749.75" type="curve" smooth="yes"/>
      <point x="50.25" y="726.25"/>
      <point x="54.25" y="711.75"/>
      <point x="61.0" y="693.0" type="curve"/>
      <point x="187.5" y="693.0" type="line"/>
      <point x="174.25" y="710.25"/>
      <point x="167.75" y="726.0"/>
      <point x="167.75" y="745.0" type="curve" smooth="yes"/>
      <point x="167.75" y="780.5"/>
      <point x="190.5" y="806.5"/>
      <point x="227.5" y="806.5" type="curve" smooth="yes"/>
      <point x="262.0" y="806.5"/>
      <point x="286.5" y="782.75"/>
      <point x="286.5" y="746.75" type="curve" smooth="yes"/>
      <point x="286.5" y="725.5"/>
      <point x="278.5" y="706.75"/>
      <point x="251.5" y="672.25" type="curve" smooth="yes"/>
    </contour>
  </outline>
</glyph>
<glyph name="zero.lf.ss01" format="2">
  <advance width="1060.0"/>
  <outline>
    <contour>
      <point x="530.0" y="-18.0" type="curve" smooth="yes"/>
      <point x="792.25" y="-18.0"/>
      <point x="1004.5" y="191.0"/>
      <point x="1004.5" y="450.0" type="curve" smooth="yes"/>
      <point x="1004.5" y="709.0"/>
      <point x="792.25" y="918.0"/>
      <point x="530.0" y="918.0" type="curve" smooth="yes"/>
      <point x="267.75" y="918.0"/>
      <point x="55.5" y="709.0"/>
      <point x="55.5" y="450.0" type="curve" smooth="yes"/>
      <point x="55.5" y="191.0"/>
      <point x="267.75" y="-18.0"/>
    </contour>
    <contour>
      <point x="530.0" y="139.5" type="curve" smooth="yes"/>
      <point x="359.0" y="139.5"/>
      <point x="226.0" y="278.0"/>
      <point x="226.0" y="450.0" type="curve" smooth="yes"/>
      <point x="226.0" y="622.0"/>
      <point x="359.0" y="760.5"/>
      <point x="530.0" y="760.5" type="curve" smooth="yes"/>
      <point x="701.0" y="760.5"/>
      <point x="834.0" y="622.0"/>
      <point x="834.0" y="450.0" type="curve" smooth="yes"/>
      <point x="834.0" y="278.0"/>
      <point x="701.0" y="139.5"/>
    </contour>
  </outline>
</glyph>
<glyph name="zero.numr" format="2">
  <advance width="480.0"/>
  <outline>
    <contour>
      <point x="240.0" y="408.0" type="curve" smooth="yes"/>
      <point x="375.0" y="408.0"/>
      <point x="441.0" y="532.25"/>
      <point x="441.0" y="660.0" type="curve" smooth="yes"/>
      <point x="441.0" y="788.5"/>
      <point x="375.0" y="912.0"/>
      <point x="240.0" y="912.0" type="curve" smooth="yes"/>
      <point x="105.0" y="912.0"/>
      <point x="39.0" y="788.5"/>
      <point x="39.0" y="660.0" type="curve" smooth="yes"/>
      <point x="39.0" y="532.25"/>
      <point x="105.0" y="408.0"/>
    </contour>
    <contour>
      <point x="240.0" y="518.0" type="curve" smooth="yes"/>
      <point x="182.0" y="518.0"/>
      <point x="160.5" y="588.0"/>
      <point x="160.5" y="660.0" type="curve" smooth="yes"/>
      <point x="160.5" y="732.0"/>
      <point x="182.0" y="802.0"/>
      <point x="240.0" y="802.0" type="curve" smooth="yes"/>
      <point x="298.0" y="802.0"/>
      <point x="319.5" y="732.0"/>
      <point x="319.5" y="660.0" type="curve" smooth="yes"/>
      <point x="319.5" y="588.0"/>
      <point x="298.0" y="518.0"/>
    </contour>
  </outline>
</glyph>
